G04 #@! TF.GenerationSoftware,KiCad,Pcbnew,(5.1.2)-2*
G04 #@! TF.CreationDate,2019-08-08T14:41:15+02:00*
G04 #@! TF.ProjectId,esp8266_8x8MatrixLed,65737038-3236-4365-9f38-78384d617472,rev?*
G04 #@! TF.SameCoordinates,Original*
G04 #@! TF.FileFunction,Legend,Top*
G04 #@! TF.FilePolarity,Positive*
%FSLAX46Y46*%
G04 Gerber Fmt 4.6, Leading zero omitted, Abs format (unit mm)*
G04 Created by KiCad (PCBNEW (5.1.2)-2) date 2019-08-08 14:41:15*
%MOMM*%
%LPD*%
G04 APERTURE LIST*
%ADD10C,0.150000*%
%ADD11C,0.120000*%
%ADD12C,0.010000*%
G04 APERTURE END LIST*
D10*
X69913904Y-58888380D02*
X69437714Y-58888380D01*
X69390095Y-59364571D01*
X69437714Y-59316952D01*
X69532952Y-59269333D01*
X69771047Y-59269333D01*
X69866285Y-59316952D01*
X69913904Y-59364571D01*
X69961523Y-59459809D01*
X69961523Y-59697904D01*
X69913904Y-59793142D01*
X69866285Y-59840761D01*
X69771047Y-59888380D01*
X69532952Y-59888380D01*
X69437714Y-59840761D01*
X69390095Y-59793142D01*
X70913904Y-59888380D02*
X70342476Y-59888380D01*
X70628190Y-59888380D02*
X70628190Y-58888380D01*
X70532952Y-59031238D01*
X70437714Y-59126476D01*
X70342476Y-59174095D01*
X71342476Y-59793142D02*
X71390095Y-59840761D01*
X71342476Y-59888380D01*
X71294857Y-59840761D01*
X71342476Y-59793142D01*
X71342476Y-59888380D01*
X71723428Y-58888380D02*
X72342476Y-58888380D01*
X72009142Y-59269333D01*
X72152000Y-59269333D01*
X72247238Y-59316952D01*
X72294857Y-59364571D01*
X72342476Y-59459809D01*
X72342476Y-59697904D01*
X72294857Y-59793142D01*
X72247238Y-59840761D01*
X72152000Y-59888380D01*
X71866285Y-59888380D01*
X71771047Y-59840761D01*
X71723428Y-59793142D01*
X72961523Y-58888380D02*
X73056761Y-58888380D01*
X73152000Y-58936000D01*
X73199619Y-58983619D01*
X73247238Y-59078857D01*
X73294857Y-59269333D01*
X73294857Y-59507428D01*
X73247238Y-59697904D01*
X73199619Y-59793142D01*
X73152000Y-59840761D01*
X73056761Y-59888380D01*
X72961523Y-59888380D01*
X72866285Y-59840761D01*
X72818666Y-59793142D01*
X72771047Y-59697904D01*
X72723428Y-59507428D01*
X72723428Y-59269333D01*
X72771047Y-59078857D01*
X72818666Y-58983619D01*
X72866285Y-58936000D01*
X72961523Y-58888380D01*
X73866285Y-59316952D02*
X73771047Y-59269333D01*
X73723428Y-59221714D01*
X73675809Y-59126476D01*
X73675809Y-59078857D01*
X73723428Y-58983619D01*
X73771047Y-58936000D01*
X73866285Y-58888380D01*
X74056761Y-58888380D01*
X74152000Y-58936000D01*
X74199619Y-58983619D01*
X74247238Y-59078857D01*
X74247238Y-59126476D01*
X74199619Y-59221714D01*
X74152000Y-59269333D01*
X74056761Y-59316952D01*
X73866285Y-59316952D01*
X73771047Y-59364571D01*
X73723428Y-59412190D01*
X73675809Y-59507428D01*
X73675809Y-59697904D01*
X73723428Y-59793142D01*
X73771047Y-59840761D01*
X73866285Y-59888380D01*
X74056761Y-59888380D01*
X74152000Y-59840761D01*
X74199619Y-59793142D01*
X74247238Y-59697904D01*
X74247238Y-59507428D01*
X74199619Y-59412190D01*
X74152000Y-59364571D01*
X74056761Y-59316952D01*
X74675809Y-59888380D02*
X74675809Y-59221714D01*
X74675809Y-59316952D02*
X74723428Y-59269333D01*
X74818666Y-59221714D01*
X74961523Y-59221714D01*
X75056761Y-59269333D01*
X75104380Y-59364571D01*
X75104380Y-59888380D01*
X75104380Y-59364571D02*
X75152000Y-59269333D01*
X75247238Y-59221714D01*
X75390095Y-59221714D01*
X75485333Y-59269333D01*
X75532952Y-59364571D01*
X75532952Y-59888380D01*
X76009142Y-59888380D02*
X76009142Y-59221714D01*
X76009142Y-59316952D02*
X76056761Y-59269333D01*
X76152000Y-59221714D01*
X76294857Y-59221714D01*
X76390095Y-59269333D01*
X76437714Y-59364571D01*
X76437714Y-59888380D01*
X76437714Y-59364571D02*
X76485333Y-59269333D01*
X76580571Y-59221714D01*
X76723428Y-59221714D01*
X76818666Y-59269333D01*
X76866285Y-59364571D01*
X76866285Y-59888380D01*
X63968380Y-49021523D02*
X63968380Y-48402476D01*
X64349333Y-48735809D01*
X64349333Y-48592952D01*
X64396952Y-48497714D01*
X64444571Y-48450095D01*
X64539809Y-48402476D01*
X64777904Y-48402476D01*
X64873142Y-48450095D01*
X64920761Y-48497714D01*
X64968380Y-48592952D01*
X64968380Y-48878666D01*
X64920761Y-48973904D01*
X64873142Y-49021523D01*
X64063619Y-48021523D02*
X64016000Y-47973904D01*
X63968380Y-47878666D01*
X63968380Y-47640571D01*
X64016000Y-47545333D01*
X64063619Y-47497714D01*
X64158857Y-47450095D01*
X64254095Y-47450095D01*
X64396952Y-47497714D01*
X64968380Y-48069142D01*
X64968380Y-47450095D01*
X64873142Y-47021523D02*
X64920761Y-46973904D01*
X64968380Y-47021523D01*
X64920761Y-47069142D01*
X64873142Y-47021523D01*
X64968380Y-47021523D01*
X63968380Y-46354857D02*
X63968380Y-46259619D01*
X64016000Y-46164380D01*
X64063619Y-46116761D01*
X64158857Y-46069142D01*
X64349333Y-46021523D01*
X64587428Y-46021523D01*
X64777904Y-46069142D01*
X64873142Y-46116761D01*
X64920761Y-46164380D01*
X64968380Y-46259619D01*
X64968380Y-46354857D01*
X64920761Y-46450095D01*
X64873142Y-46497714D01*
X64777904Y-46545333D01*
X64587428Y-46592952D01*
X64349333Y-46592952D01*
X64158857Y-46545333D01*
X64063619Y-46497714D01*
X64016000Y-46450095D01*
X63968380Y-46354857D01*
X63968380Y-45402476D02*
X63968380Y-45307238D01*
X64016000Y-45212000D01*
X64063619Y-45164380D01*
X64158857Y-45116761D01*
X64349333Y-45069142D01*
X64587428Y-45069142D01*
X64777904Y-45116761D01*
X64873142Y-45164380D01*
X64920761Y-45212000D01*
X64968380Y-45307238D01*
X64968380Y-45402476D01*
X64920761Y-45497714D01*
X64873142Y-45545333D01*
X64777904Y-45592952D01*
X64587428Y-45640571D01*
X64349333Y-45640571D01*
X64158857Y-45592952D01*
X64063619Y-45545333D01*
X64016000Y-45497714D01*
X63968380Y-45402476D01*
X64301714Y-44212000D02*
X64968380Y-44212000D01*
X63920761Y-44450095D02*
X64635047Y-44688190D01*
X64635047Y-44069142D01*
X64968380Y-43688190D02*
X64301714Y-43688190D01*
X64396952Y-43688190D02*
X64349333Y-43640571D01*
X64301714Y-43545333D01*
X64301714Y-43402476D01*
X64349333Y-43307238D01*
X64444571Y-43259619D01*
X64968380Y-43259619D01*
X64444571Y-43259619D02*
X64349333Y-43212000D01*
X64301714Y-43116761D01*
X64301714Y-42973904D01*
X64349333Y-42878666D01*
X64444571Y-42831047D01*
X64968380Y-42831047D01*
X64968380Y-42354857D02*
X64301714Y-42354857D01*
X64396952Y-42354857D02*
X64349333Y-42307238D01*
X64301714Y-42212000D01*
X64301714Y-42069142D01*
X64349333Y-41973904D01*
X64444571Y-41926285D01*
X64968380Y-41926285D01*
X64444571Y-41926285D02*
X64349333Y-41878666D01*
X64301714Y-41783428D01*
X64301714Y-41640571D01*
X64349333Y-41545333D01*
X64444571Y-41497714D01*
X64968380Y-41497714D01*
X78192380Y-51117333D02*
X79192380Y-50784000D01*
X78192380Y-50450666D01*
X79097142Y-49545904D02*
X79144761Y-49593523D01*
X79192380Y-49736380D01*
X79192380Y-49831619D01*
X79144761Y-49974476D01*
X79049523Y-50069714D01*
X78954285Y-50117333D01*
X78763809Y-50164952D01*
X78620952Y-50164952D01*
X78430476Y-50117333D01*
X78335238Y-50069714D01*
X78240000Y-49974476D01*
X78192380Y-49831619D01*
X78192380Y-49736380D01*
X78240000Y-49593523D01*
X78287619Y-49545904D01*
X79097142Y-48545904D02*
X79144761Y-48593523D01*
X79192380Y-48736380D01*
X79192380Y-48831619D01*
X79144761Y-48974476D01*
X79049523Y-49069714D01*
X78954285Y-49117333D01*
X78763809Y-49164952D01*
X78620952Y-49164952D01*
X78430476Y-49117333D01*
X78335238Y-49069714D01*
X78240000Y-48974476D01*
X78192380Y-48831619D01*
X78192380Y-48736380D01*
X78240000Y-48593523D01*
X78287619Y-48545904D01*
X100941238Y-30916571D02*
X101084095Y-30964190D01*
X101131714Y-31011809D01*
X101179333Y-31107047D01*
X101179333Y-31249904D01*
X101131714Y-31345142D01*
X101084095Y-31392761D01*
X100988857Y-31440380D01*
X100607904Y-31440380D01*
X100607904Y-30440380D01*
X100941238Y-30440380D01*
X101036476Y-30488000D01*
X101084095Y-30535619D01*
X101131714Y-30630857D01*
X101131714Y-30726095D01*
X101084095Y-30821333D01*
X101036476Y-30868952D01*
X100941238Y-30916571D01*
X100607904Y-30916571D01*
X102131714Y-31440380D02*
X101560285Y-31440380D01*
X101846000Y-31440380D02*
X101846000Y-30440380D01*
X101750761Y-30583238D01*
X101655523Y-30678476D01*
X101560285Y-30726095D01*
X84288380Y-31440380D02*
X83955047Y-30964190D01*
X83716952Y-31440380D02*
X83716952Y-30440380D01*
X84097904Y-30440380D01*
X84193142Y-30488000D01*
X84240761Y-30535619D01*
X84288380Y-30630857D01*
X84288380Y-30773714D01*
X84240761Y-30868952D01*
X84193142Y-30916571D01*
X84097904Y-30964190D01*
X83716952Y-30964190D01*
X84669333Y-31392761D02*
X84812190Y-31440380D01*
X85050285Y-31440380D01*
X85145523Y-31392761D01*
X85193142Y-31345142D01*
X85240761Y-31249904D01*
X85240761Y-31154666D01*
X85193142Y-31059428D01*
X85145523Y-31011809D01*
X85050285Y-30964190D01*
X84859809Y-30916571D01*
X84764571Y-30868952D01*
X84716952Y-30821333D01*
X84669333Y-30726095D01*
X84669333Y-30630857D01*
X84716952Y-30535619D01*
X84764571Y-30488000D01*
X84859809Y-30440380D01*
X85097904Y-30440380D01*
X85240761Y-30488000D01*
X85526476Y-30440380D02*
X86097904Y-30440380D01*
X85812190Y-31440380D02*
X85812190Y-30440380D01*
X74612952Y-32138952D02*
X74517714Y-32091333D01*
X74470095Y-32043714D01*
X74422476Y-31948476D01*
X74422476Y-31900857D01*
X74470095Y-31805619D01*
X74517714Y-31758000D01*
X74612952Y-31710380D01*
X74803428Y-31710380D01*
X74898666Y-31758000D01*
X74946285Y-31805619D01*
X74993904Y-31900857D01*
X74993904Y-31948476D01*
X74946285Y-32043714D01*
X74898666Y-32091333D01*
X74803428Y-32138952D01*
X74612952Y-32138952D01*
X74517714Y-32186571D01*
X74470095Y-32234190D01*
X74422476Y-32329428D01*
X74422476Y-32519904D01*
X74470095Y-32615142D01*
X74517714Y-32662761D01*
X74612952Y-32710380D01*
X74803428Y-32710380D01*
X74898666Y-32662761D01*
X74946285Y-32615142D01*
X74993904Y-32519904D01*
X74993904Y-32329428D01*
X74946285Y-32234190D01*
X74898666Y-32186571D01*
X74803428Y-32138952D01*
X75327238Y-32710380D02*
X75851047Y-32043714D01*
X75327238Y-32043714D02*
X75851047Y-32710380D01*
X76374857Y-32138952D02*
X76279619Y-32091333D01*
X76232000Y-32043714D01*
X76184380Y-31948476D01*
X76184380Y-31900857D01*
X76232000Y-31805619D01*
X76279619Y-31758000D01*
X76374857Y-31710380D01*
X76565333Y-31710380D01*
X76660571Y-31758000D01*
X76708190Y-31805619D01*
X76755809Y-31900857D01*
X76755809Y-31948476D01*
X76708190Y-32043714D01*
X76660571Y-32091333D01*
X76565333Y-32138952D01*
X76374857Y-32138952D01*
X76279619Y-32186571D01*
X76232000Y-32234190D01*
X76184380Y-32329428D01*
X76184380Y-32519904D01*
X76232000Y-32615142D01*
X76279619Y-32662761D01*
X76374857Y-32710380D01*
X76565333Y-32710380D01*
X76660571Y-32662761D01*
X76708190Y-32615142D01*
X76755809Y-32519904D01*
X76755809Y-32329428D01*
X76708190Y-32234190D01*
X76660571Y-32186571D01*
X76565333Y-32138952D01*
X77946285Y-32710380D02*
X77946285Y-31710380D01*
X78279619Y-32424666D01*
X78612952Y-31710380D01*
X78612952Y-32710380D01*
X79517714Y-32710380D02*
X79517714Y-32186571D01*
X79470095Y-32091333D01*
X79374857Y-32043714D01*
X79184380Y-32043714D01*
X79089142Y-32091333D01*
X79517714Y-32662761D02*
X79422476Y-32710380D01*
X79184380Y-32710380D01*
X79089142Y-32662761D01*
X79041523Y-32567523D01*
X79041523Y-32472285D01*
X79089142Y-32377047D01*
X79184380Y-32329428D01*
X79422476Y-32329428D01*
X79517714Y-32281809D01*
X79851047Y-32043714D02*
X80232000Y-32043714D01*
X79993904Y-31710380D02*
X79993904Y-32567523D01*
X80041523Y-32662761D01*
X80136761Y-32710380D01*
X80232000Y-32710380D01*
X80565333Y-32710380D02*
X80565333Y-32043714D01*
X80565333Y-32234190D02*
X80612952Y-32138952D01*
X80660571Y-32091333D01*
X80755809Y-32043714D01*
X80851047Y-32043714D01*
X81184380Y-32710380D02*
X81184380Y-32043714D01*
X81184380Y-31710380D02*
X81136761Y-31758000D01*
X81184380Y-31805619D01*
X81232000Y-31758000D01*
X81184380Y-31710380D01*
X81184380Y-31805619D01*
X81565333Y-32710380D02*
X82089142Y-32043714D01*
X81565333Y-32043714D02*
X82089142Y-32710380D01*
X74223904Y-30265714D02*
X74223904Y-31265714D01*
X74700095Y-30789523D02*
X74747714Y-30884761D01*
X74842952Y-30932380D01*
X74223904Y-30789523D02*
X74271523Y-30884761D01*
X74366761Y-30932380D01*
X74557238Y-30932380D01*
X74652476Y-30884761D01*
X74700095Y-30789523D01*
X74700095Y-30265714D01*
X75223904Y-30884761D02*
X75319142Y-30932380D01*
X75509619Y-30932380D01*
X75604857Y-30884761D01*
X75652476Y-30789523D01*
X75652476Y-30741904D01*
X75604857Y-30646666D01*
X75509619Y-30599047D01*
X75366761Y-30599047D01*
X75271523Y-30551428D01*
X75223904Y-30456190D01*
X75223904Y-30408571D01*
X75271523Y-30313333D01*
X75366761Y-30265714D01*
X75509619Y-30265714D01*
X75604857Y-30313333D01*
X76081047Y-30932380D02*
X76081047Y-30265714D01*
X76081047Y-29932380D02*
X76033428Y-29980000D01*
X76081047Y-30027619D01*
X76128666Y-29980000D01*
X76081047Y-29932380D01*
X76081047Y-30027619D01*
X76557238Y-30265714D02*
X76557238Y-30932380D01*
X76557238Y-30360952D02*
X76604857Y-30313333D01*
X76700095Y-30265714D01*
X76842952Y-30265714D01*
X76938190Y-30313333D01*
X76985809Y-30408571D01*
X76985809Y-30932380D01*
X77462000Y-30932380D02*
X77462000Y-30265714D01*
X77462000Y-29932380D02*
X77414380Y-29980000D01*
X77462000Y-30027619D01*
X77509619Y-29980000D01*
X77462000Y-29932380D01*
X77462000Y-30027619D01*
X77938190Y-30837142D02*
X77985809Y-30884761D01*
X77938190Y-30932380D01*
X77890571Y-30884761D01*
X77938190Y-30837142D01*
X77938190Y-30932380D01*
X78795333Y-30884761D02*
X78700095Y-30932380D01*
X78509619Y-30932380D01*
X78414380Y-30884761D01*
X78366761Y-30789523D01*
X78366761Y-30408571D01*
X78414380Y-30313333D01*
X78509619Y-30265714D01*
X78700095Y-30265714D01*
X78795333Y-30313333D01*
X78842952Y-30408571D01*
X78842952Y-30503809D01*
X78366761Y-30599047D01*
X79700095Y-30265714D02*
X79700095Y-30932380D01*
X79271523Y-30265714D02*
X79271523Y-30789523D01*
X79319142Y-30884761D01*
X79414380Y-30932380D01*
X79557238Y-30932380D01*
X79652476Y-30884761D01*
X79700095Y-30837142D01*
D11*
X79925000Y-35428000D02*
G75*
G02X82055000Y-33298000I2130000J0D01*
G01*
X82055000Y-59158000D02*
G75*
G02X79925000Y-57028000I0J2130000D01*
G01*
D10*
G36*
X87630000Y-60198000D02*
G01*
X88900000Y-60198000D01*
X88265000Y-59563000D01*
X87630000Y-60198000D01*
G37*
X87630000Y-60198000D02*
X88900000Y-60198000D01*
X88265000Y-59563000D01*
X87630000Y-60198000D01*
D11*
X79925000Y-35418000D02*
X79925000Y-57028000D01*
D10*
X82169000Y-33274000D02*
X86741000Y-33274000D01*
X82055000Y-59158000D02*
X86741000Y-59182000D01*
X86741000Y-59182000D02*
X86741000Y-33274000D01*
D12*
G36*
X71223910Y-29754348D02*
G01*
X71302454Y-29754778D01*
X71359298Y-29755942D01*
X71398105Y-29758207D01*
X71422538Y-29761940D01*
X71436262Y-29767506D01*
X71442940Y-29775273D01*
X71446236Y-29785605D01*
X71446556Y-29786943D01*
X71451562Y-29811079D01*
X71460829Y-29858701D01*
X71473392Y-29924741D01*
X71488287Y-30004128D01*
X71504551Y-30091796D01*
X71505119Y-30094875D01*
X71521410Y-30180789D01*
X71536652Y-30256696D01*
X71549861Y-30318045D01*
X71560054Y-30360282D01*
X71566248Y-30378855D01*
X71566543Y-30379184D01*
X71584788Y-30388253D01*
X71622405Y-30403367D01*
X71671271Y-30421262D01*
X71671543Y-30421358D01*
X71733093Y-30444493D01*
X71805657Y-30473965D01*
X71874057Y-30503597D01*
X71877294Y-30505062D01*
X71988702Y-30555626D01*
X72235399Y-30387160D01*
X72311077Y-30335803D01*
X72379631Y-30289889D01*
X72437088Y-30252030D01*
X72479476Y-30224837D01*
X72502825Y-30210921D01*
X72505042Y-30209889D01*
X72522010Y-30214484D01*
X72553701Y-30236655D01*
X72601352Y-30277447D01*
X72666198Y-30337905D01*
X72732397Y-30402227D01*
X72796214Y-30465612D01*
X72853329Y-30523451D01*
X72900305Y-30572175D01*
X72933703Y-30608210D01*
X72950085Y-30627984D01*
X72950694Y-30629002D01*
X72952505Y-30642572D01*
X72945683Y-30664733D01*
X72928540Y-30698478D01*
X72899393Y-30746800D01*
X72856555Y-30812692D01*
X72799448Y-30897517D01*
X72748766Y-30972177D01*
X72703461Y-31039140D01*
X72666150Y-31094516D01*
X72639452Y-31134420D01*
X72625985Y-31154962D01*
X72625137Y-31156356D01*
X72626781Y-31176038D01*
X72639245Y-31214293D01*
X72660048Y-31263889D01*
X72667462Y-31279728D01*
X72699814Y-31350290D01*
X72734328Y-31430353D01*
X72762365Y-31499629D01*
X72782568Y-31551045D01*
X72798615Y-31590119D01*
X72807888Y-31610541D01*
X72809041Y-31612114D01*
X72826096Y-31614721D01*
X72866298Y-31621863D01*
X72924302Y-31632523D01*
X72994763Y-31645685D01*
X73072335Y-31660333D01*
X73151672Y-31675449D01*
X73227431Y-31690018D01*
X73294264Y-31703022D01*
X73346828Y-31713445D01*
X73379776Y-31720270D01*
X73387857Y-31722199D01*
X73396205Y-31726962D01*
X73402506Y-31737718D01*
X73407045Y-31758098D01*
X73410104Y-31791734D01*
X73411967Y-31842255D01*
X73412918Y-31913292D01*
X73413240Y-32008476D01*
X73413257Y-32047492D01*
X73413257Y-32364799D01*
X73337057Y-32379839D01*
X73294663Y-32387995D01*
X73231400Y-32399899D01*
X73154962Y-32414116D01*
X73073043Y-32429210D01*
X73050400Y-32433355D01*
X72974806Y-32448053D01*
X72908953Y-32462505D01*
X72858366Y-32475375D01*
X72828574Y-32485322D01*
X72823612Y-32488287D01*
X72811426Y-32509283D01*
X72793953Y-32549967D01*
X72774577Y-32602322D01*
X72770734Y-32613600D01*
X72745339Y-32683523D01*
X72713817Y-32762418D01*
X72682969Y-32833266D01*
X72682817Y-32833595D01*
X72631447Y-32944733D01*
X72800399Y-33193253D01*
X72969352Y-33441772D01*
X72752429Y-33659058D01*
X72686819Y-33723726D01*
X72626979Y-33780733D01*
X72576267Y-33827033D01*
X72538046Y-33859584D01*
X72515675Y-33875343D01*
X72512466Y-33876343D01*
X72493626Y-33868469D01*
X72455180Y-33846578D01*
X72401330Y-33813267D01*
X72336276Y-33771131D01*
X72265940Y-33723943D01*
X72194555Y-33675810D01*
X72130908Y-33633928D01*
X72079041Y-33600871D01*
X72042995Y-33579218D01*
X72026867Y-33571543D01*
X72007189Y-33578037D01*
X71969875Y-33595150D01*
X71922621Y-33619326D01*
X71917612Y-33622013D01*
X71853977Y-33653927D01*
X71810341Y-33669579D01*
X71783202Y-33669745D01*
X71769057Y-33655204D01*
X71768975Y-33655000D01*
X71761905Y-33637779D01*
X71745042Y-33596899D01*
X71719695Y-33535525D01*
X71687171Y-33456819D01*
X71648778Y-33363947D01*
X71605822Y-33260072D01*
X71564222Y-33159502D01*
X71518504Y-33048516D01*
X71476526Y-32945703D01*
X71439548Y-32854215D01*
X71408827Y-32777201D01*
X71385622Y-32717815D01*
X71371190Y-32679209D01*
X71366743Y-32664800D01*
X71377896Y-32648272D01*
X71407069Y-32621930D01*
X71445971Y-32592887D01*
X71556757Y-32501039D01*
X71643351Y-32395759D01*
X71704716Y-32279266D01*
X71739815Y-32153776D01*
X71747608Y-32021507D01*
X71741943Y-31960457D01*
X71711078Y-31833795D01*
X71657920Y-31721941D01*
X71585767Y-31626001D01*
X71497917Y-31547076D01*
X71397665Y-31486270D01*
X71288310Y-31444687D01*
X71173147Y-31423428D01*
X71055475Y-31423599D01*
X70938590Y-31446301D01*
X70825789Y-31492638D01*
X70720369Y-31563713D01*
X70676368Y-31603911D01*
X70591979Y-31707129D01*
X70533222Y-31819925D01*
X70499704Y-31939010D01*
X70491035Y-32061095D01*
X70506823Y-32182893D01*
X70546678Y-32301116D01*
X70610207Y-32412475D01*
X70697021Y-32513684D01*
X70794029Y-32592887D01*
X70834437Y-32623162D01*
X70862982Y-32649219D01*
X70873257Y-32664825D01*
X70867877Y-32681843D01*
X70852575Y-32722500D01*
X70828612Y-32783642D01*
X70797244Y-32862119D01*
X70759732Y-32954780D01*
X70717333Y-33058472D01*
X70675663Y-33159526D01*
X70629690Y-33270607D01*
X70587107Y-33373541D01*
X70549221Y-33465165D01*
X70517340Y-33542316D01*
X70492771Y-33601831D01*
X70476820Y-33640544D01*
X70470910Y-33655000D01*
X70456948Y-33669685D01*
X70429940Y-33669642D01*
X70386413Y-33654099D01*
X70322890Y-33622284D01*
X70322388Y-33622013D01*
X70274560Y-33597323D01*
X70235897Y-33579338D01*
X70214095Y-33571614D01*
X70213133Y-33571543D01*
X70196721Y-33579378D01*
X70160487Y-33601165D01*
X70108474Y-33634328D01*
X70044725Y-33676291D01*
X69974060Y-33723943D01*
X69902116Y-33772191D01*
X69837274Y-33814151D01*
X69783735Y-33847227D01*
X69745697Y-33868821D01*
X69727533Y-33876343D01*
X69710808Y-33866457D01*
X69677180Y-33838826D01*
X69630010Y-33796495D01*
X69572658Y-33742505D01*
X69508484Y-33679899D01*
X69487497Y-33658983D01*
X69270499Y-33441623D01*
X69435668Y-33199220D01*
X69485864Y-33124781D01*
X69529919Y-33057972D01*
X69565362Y-33002665D01*
X69589719Y-32962729D01*
X69600522Y-32942036D01*
X69600838Y-32940563D01*
X69595143Y-32921058D01*
X69579826Y-32881822D01*
X69557537Y-32829430D01*
X69541893Y-32794355D01*
X69512641Y-32727201D01*
X69485094Y-32659358D01*
X69463737Y-32602034D01*
X69457935Y-32584572D01*
X69441452Y-32537938D01*
X69425340Y-32501905D01*
X69416490Y-32488287D01*
X69396960Y-32479952D01*
X69354334Y-32468137D01*
X69294145Y-32454181D01*
X69221922Y-32439422D01*
X69189600Y-32433355D01*
X69107522Y-32418273D01*
X69028795Y-32403669D01*
X68961109Y-32390980D01*
X68912160Y-32381642D01*
X68902943Y-32379839D01*
X68826743Y-32364799D01*
X68826743Y-32047492D01*
X68826914Y-31943154D01*
X68827616Y-31864213D01*
X68829134Y-31807038D01*
X68831749Y-31767999D01*
X68835746Y-31743465D01*
X68841409Y-31729805D01*
X68849020Y-31723389D01*
X68852143Y-31722199D01*
X68870978Y-31717980D01*
X68912588Y-31709562D01*
X68971630Y-31697961D01*
X69042757Y-31684195D01*
X69120625Y-31669280D01*
X69199887Y-31654232D01*
X69275198Y-31640069D01*
X69341213Y-31627806D01*
X69392587Y-31618461D01*
X69423975Y-31613050D01*
X69430959Y-31612114D01*
X69437285Y-31599596D01*
X69451290Y-31566246D01*
X69470355Y-31518377D01*
X69477634Y-31499629D01*
X69506996Y-31427195D01*
X69541571Y-31347170D01*
X69572537Y-31279728D01*
X69595323Y-31228159D01*
X69610482Y-31185785D01*
X69615542Y-31159834D01*
X69614736Y-31156356D01*
X69604041Y-31139936D01*
X69579620Y-31103417D01*
X69544095Y-31050687D01*
X69500087Y-30985635D01*
X69450217Y-30912151D01*
X69440356Y-30897645D01*
X69382492Y-30811704D01*
X69339956Y-30746261D01*
X69311054Y-30698304D01*
X69294090Y-30664820D01*
X69287367Y-30642795D01*
X69289190Y-30629217D01*
X69289236Y-30629131D01*
X69303586Y-30611297D01*
X69335323Y-30576817D01*
X69381010Y-30529268D01*
X69437204Y-30472222D01*
X69500468Y-30409255D01*
X69507602Y-30402227D01*
X69587330Y-30325020D01*
X69648857Y-30268330D01*
X69693421Y-30231110D01*
X69722257Y-30212315D01*
X69734958Y-30209889D01*
X69753494Y-30220471D01*
X69791961Y-30244916D01*
X69846386Y-30280612D01*
X69912798Y-30324947D01*
X69987225Y-30375311D01*
X70004601Y-30387160D01*
X70251297Y-30555626D01*
X70362706Y-30505062D01*
X70430457Y-30475595D01*
X70503183Y-30445959D01*
X70565703Y-30422330D01*
X70568457Y-30421358D01*
X70617360Y-30403457D01*
X70655057Y-30388320D01*
X70673425Y-30379210D01*
X70673456Y-30379184D01*
X70679285Y-30362717D01*
X70689192Y-30322219D01*
X70702195Y-30262242D01*
X70717309Y-30187340D01*
X70733552Y-30102064D01*
X70734881Y-30094875D01*
X70751175Y-30007014D01*
X70766133Y-29927260D01*
X70778791Y-29860681D01*
X70788186Y-29812347D01*
X70793354Y-29787325D01*
X70793444Y-29786943D01*
X70796589Y-29776299D01*
X70802704Y-29768262D01*
X70815453Y-29762467D01*
X70838500Y-29758547D01*
X70875509Y-29756135D01*
X70930144Y-29754865D01*
X71006067Y-29754371D01*
X71106944Y-29754286D01*
X71120000Y-29754286D01*
X71223910Y-29754348D01*
X71223910Y-29754348D01*
G37*
X71223910Y-29754348D02*
X71302454Y-29754778D01*
X71359298Y-29755942D01*
X71398105Y-29758207D01*
X71422538Y-29761940D01*
X71436262Y-29767506D01*
X71442940Y-29775273D01*
X71446236Y-29785605D01*
X71446556Y-29786943D01*
X71451562Y-29811079D01*
X71460829Y-29858701D01*
X71473392Y-29924741D01*
X71488287Y-30004128D01*
X71504551Y-30091796D01*
X71505119Y-30094875D01*
X71521410Y-30180789D01*
X71536652Y-30256696D01*
X71549861Y-30318045D01*
X71560054Y-30360282D01*
X71566248Y-30378855D01*
X71566543Y-30379184D01*
X71584788Y-30388253D01*
X71622405Y-30403367D01*
X71671271Y-30421262D01*
X71671543Y-30421358D01*
X71733093Y-30444493D01*
X71805657Y-30473965D01*
X71874057Y-30503597D01*
X71877294Y-30505062D01*
X71988702Y-30555626D01*
X72235399Y-30387160D01*
X72311077Y-30335803D01*
X72379631Y-30289889D01*
X72437088Y-30252030D01*
X72479476Y-30224837D01*
X72502825Y-30210921D01*
X72505042Y-30209889D01*
X72522010Y-30214484D01*
X72553701Y-30236655D01*
X72601352Y-30277447D01*
X72666198Y-30337905D01*
X72732397Y-30402227D01*
X72796214Y-30465612D01*
X72853329Y-30523451D01*
X72900305Y-30572175D01*
X72933703Y-30608210D01*
X72950085Y-30627984D01*
X72950694Y-30629002D01*
X72952505Y-30642572D01*
X72945683Y-30664733D01*
X72928540Y-30698478D01*
X72899393Y-30746800D01*
X72856555Y-30812692D01*
X72799448Y-30897517D01*
X72748766Y-30972177D01*
X72703461Y-31039140D01*
X72666150Y-31094516D01*
X72639452Y-31134420D01*
X72625985Y-31154962D01*
X72625137Y-31156356D01*
X72626781Y-31176038D01*
X72639245Y-31214293D01*
X72660048Y-31263889D01*
X72667462Y-31279728D01*
X72699814Y-31350290D01*
X72734328Y-31430353D01*
X72762365Y-31499629D01*
X72782568Y-31551045D01*
X72798615Y-31590119D01*
X72807888Y-31610541D01*
X72809041Y-31612114D01*
X72826096Y-31614721D01*
X72866298Y-31621863D01*
X72924302Y-31632523D01*
X72994763Y-31645685D01*
X73072335Y-31660333D01*
X73151672Y-31675449D01*
X73227431Y-31690018D01*
X73294264Y-31703022D01*
X73346828Y-31713445D01*
X73379776Y-31720270D01*
X73387857Y-31722199D01*
X73396205Y-31726962D01*
X73402506Y-31737718D01*
X73407045Y-31758098D01*
X73410104Y-31791734D01*
X73411967Y-31842255D01*
X73412918Y-31913292D01*
X73413240Y-32008476D01*
X73413257Y-32047492D01*
X73413257Y-32364799D01*
X73337057Y-32379839D01*
X73294663Y-32387995D01*
X73231400Y-32399899D01*
X73154962Y-32414116D01*
X73073043Y-32429210D01*
X73050400Y-32433355D01*
X72974806Y-32448053D01*
X72908953Y-32462505D01*
X72858366Y-32475375D01*
X72828574Y-32485322D01*
X72823612Y-32488287D01*
X72811426Y-32509283D01*
X72793953Y-32549967D01*
X72774577Y-32602322D01*
X72770734Y-32613600D01*
X72745339Y-32683523D01*
X72713817Y-32762418D01*
X72682969Y-32833266D01*
X72682817Y-32833595D01*
X72631447Y-32944733D01*
X72800399Y-33193253D01*
X72969352Y-33441772D01*
X72752429Y-33659058D01*
X72686819Y-33723726D01*
X72626979Y-33780733D01*
X72576267Y-33827033D01*
X72538046Y-33859584D01*
X72515675Y-33875343D01*
X72512466Y-33876343D01*
X72493626Y-33868469D01*
X72455180Y-33846578D01*
X72401330Y-33813267D01*
X72336276Y-33771131D01*
X72265940Y-33723943D01*
X72194555Y-33675810D01*
X72130908Y-33633928D01*
X72079041Y-33600871D01*
X72042995Y-33579218D01*
X72026867Y-33571543D01*
X72007189Y-33578037D01*
X71969875Y-33595150D01*
X71922621Y-33619326D01*
X71917612Y-33622013D01*
X71853977Y-33653927D01*
X71810341Y-33669579D01*
X71783202Y-33669745D01*
X71769057Y-33655204D01*
X71768975Y-33655000D01*
X71761905Y-33637779D01*
X71745042Y-33596899D01*
X71719695Y-33535525D01*
X71687171Y-33456819D01*
X71648778Y-33363947D01*
X71605822Y-33260072D01*
X71564222Y-33159502D01*
X71518504Y-33048516D01*
X71476526Y-32945703D01*
X71439548Y-32854215D01*
X71408827Y-32777201D01*
X71385622Y-32717815D01*
X71371190Y-32679209D01*
X71366743Y-32664800D01*
X71377896Y-32648272D01*
X71407069Y-32621930D01*
X71445971Y-32592887D01*
X71556757Y-32501039D01*
X71643351Y-32395759D01*
X71704716Y-32279266D01*
X71739815Y-32153776D01*
X71747608Y-32021507D01*
X71741943Y-31960457D01*
X71711078Y-31833795D01*
X71657920Y-31721941D01*
X71585767Y-31626001D01*
X71497917Y-31547076D01*
X71397665Y-31486270D01*
X71288310Y-31444687D01*
X71173147Y-31423428D01*
X71055475Y-31423599D01*
X70938590Y-31446301D01*
X70825789Y-31492638D01*
X70720369Y-31563713D01*
X70676368Y-31603911D01*
X70591979Y-31707129D01*
X70533222Y-31819925D01*
X70499704Y-31939010D01*
X70491035Y-32061095D01*
X70506823Y-32182893D01*
X70546678Y-32301116D01*
X70610207Y-32412475D01*
X70697021Y-32513684D01*
X70794029Y-32592887D01*
X70834437Y-32623162D01*
X70862982Y-32649219D01*
X70873257Y-32664825D01*
X70867877Y-32681843D01*
X70852575Y-32722500D01*
X70828612Y-32783642D01*
X70797244Y-32862119D01*
X70759732Y-32954780D01*
X70717333Y-33058472D01*
X70675663Y-33159526D01*
X70629690Y-33270607D01*
X70587107Y-33373541D01*
X70549221Y-33465165D01*
X70517340Y-33542316D01*
X70492771Y-33601831D01*
X70476820Y-33640544D01*
X70470910Y-33655000D01*
X70456948Y-33669685D01*
X70429940Y-33669642D01*
X70386413Y-33654099D01*
X70322890Y-33622284D01*
X70322388Y-33622013D01*
X70274560Y-33597323D01*
X70235897Y-33579338D01*
X70214095Y-33571614D01*
X70213133Y-33571543D01*
X70196721Y-33579378D01*
X70160487Y-33601165D01*
X70108474Y-33634328D01*
X70044725Y-33676291D01*
X69974060Y-33723943D01*
X69902116Y-33772191D01*
X69837274Y-33814151D01*
X69783735Y-33847227D01*
X69745697Y-33868821D01*
X69727533Y-33876343D01*
X69710808Y-33866457D01*
X69677180Y-33838826D01*
X69630010Y-33796495D01*
X69572658Y-33742505D01*
X69508484Y-33679899D01*
X69487497Y-33658983D01*
X69270499Y-33441623D01*
X69435668Y-33199220D01*
X69485864Y-33124781D01*
X69529919Y-33057972D01*
X69565362Y-33002665D01*
X69589719Y-32962729D01*
X69600522Y-32942036D01*
X69600838Y-32940563D01*
X69595143Y-32921058D01*
X69579826Y-32881822D01*
X69557537Y-32829430D01*
X69541893Y-32794355D01*
X69512641Y-32727201D01*
X69485094Y-32659358D01*
X69463737Y-32602034D01*
X69457935Y-32584572D01*
X69441452Y-32537938D01*
X69425340Y-32501905D01*
X69416490Y-32488287D01*
X69396960Y-32479952D01*
X69354334Y-32468137D01*
X69294145Y-32454181D01*
X69221922Y-32439422D01*
X69189600Y-32433355D01*
X69107522Y-32418273D01*
X69028795Y-32403669D01*
X68961109Y-32390980D01*
X68912160Y-32381642D01*
X68902943Y-32379839D01*
X68826743Y-32364799D01*
X68826743Y-32047492D01*
X68826914Y-31943154D01*
X68827616Y-31864213D01*
X68829134Y-31807038D01*
X68831749Y-31767999D01*
X68835746Y-31743465D01*
X68841409Y-31729805D01*
X68849020Y-31723389D01*
X68852143Y-31722199D01*
X68870978Y-31717980D01*
X68912588Y-31709562D01*
X68971630Y-31697961D01*
X69042757Y-31684195D01*
X69120625Y-31669280D01*
X69199887Y-31654232D01*
X69275198Y-31640069D01*
X69341213Y-31627806D01*
X69392587Y-31618461D01*
X69423975Y-31613050D01*
X69430959Y-31612114D01*
X69437285Y-31599596D01*
X69451290Y-31566246D01*
X69470355Y-31518377D01*
X69477634Y-31499629D01*
X69506996Y-31427195D01*
X69541571Y-31347170D01*
X69572537Y-31279728D01*
X69595323Y-31228159D01*
X69610482Y-31185785D01*
X69615542Y-31159834D01*
X69614736Y-31156356D01*
X69604041Y-31139936D01*
X69579620Y-31103417D01*
X69544095Y-31050687D01*
X69500087Y-30985635D01*
X69450217Y-30912151D01*
X69440356Y-30897645D01*
X69382492Y-30811704D01*
X69339956Y-30746261D01*
X69311054Y-30698304D01*
X69294090Y-30664820D01*
X69287367Y-30642795D01*
X69289190Y-30629217D01*
X69289236Y-30629131D01*
X69303586Y-30611297D01*
X69335323Y-30576817D01*
X69381010Y-30529268D01*
X69437204Y-30472222D01*
X69500468Y-30409255D01*
X69507602Y-30402227D01*
X69587330Y-30325020D01*
X69648857Y-30268330D01*
X69693421Y-30231110D01*
X69722257Y-30212315D01*
X69734958Y-30209889D01*
X69753494Y-30220471D01*
X69791961Y-30244916D01*
X69846386Y-30280612D01*
X69912798Y-30324947D01*
X69987225Y-30375311D01*
X70004601Y-30387160D01*
X70251297Y-30555626D01*
X70362706Y-30505062D01*
X70430457Y-30475595D01*
X70503183Y-30445959D01*
X70565703Y-30422330D01*
X70568457Y-30421358D01*
X70617360Y-30403457D01*
X70655057Y-30388320D01*
X70673425Y-30379210D01*
X70673456Y-30379184D01*
X70679285Y-30362717D01*
X70689192Y-30322219D01*
X70702195Y-30262242D01*
X70717309Y-30187340D01*
X70733552Y-30102064D01*
X70734881Y-30094875D01*
X70751175Y-30007014D01*
X70766133Y-29927260D01*
X70778791Y-29860681D01*
X70788186Y-29812347D01*
X70793354Y-29787325D01*
X70793444Y-29786943D01*
X70796589Y-29776299D01*
X70802704Y-29768262D01*
X70815453Y-29762467D01*
X70838500Y-29758547D01*
X70875509Y-29756135D01*
X70930144Y-29754865D01*
X71006067Y-29754371D01*
X71106944Y-29754286D01*
X71120000Y-29754286D01*
X71223910Y-29754348D01*
G36*
X74273595Y-34478966D02*
G01*
X74331021Y-34516497D01*
X74358719Y-34550096D01*
X74380662Y-34611064D01*
X74382405Y-34659308D01*
X74378457Y-34723816D01*
X74229686Y-34788934D01*
X74157349Y-34822202D01*
X74110084Y-34848964D01*
X74085507Y-34872144D01*
X74081237Y-34894667D01*
X74094889Y-34919455D01*
X74109943Y-34935886D01*
X74153746Y-34962235D01*
X74201389Y-34964081D01*
X74245145Y-34943546D01*
X74277289Y-34902752D01*
X74283038Y-34888347D01*
X74310576Y-34843356D01*
X74342258Y-34824182D01*
X74385714Y-34807779D01*
X74385714Y-34869966D01*
X74381872Y-34912283D01*
X74366823Y-34947969D01*
X74335280Y-34988943D01*
X74330592Y-34994267D01*
X74295506Y-35030720D01*
X74265347Y-35050283D01*
X74227615Y-35059283D01*
X74196335Y-35062230D01*
X74140385Y-35062965D01*
X74100555Y-35053660D01*
X74075708Y-35039846D01*
X74036656Y-35009467D01*
X74009625Y-34976613D01*
X73992517Y-34935294D01*
X73983238Y-34879521D01*
X73979693Y-34803305D01*
X73979410Y-34764622D01*
X73980372Y-34718247D01*
X74068007Y-34718247D01*
X74069023Y-34743126D01*
X74071556Y-34747200D01*
X74088274Y-34741665D01*
X74124249Y-34727017D01*
X74172331Y-34706190D01*
X74182386Y-34701714D01*
X74243152Y-34670814D01*
X74276632Y-34643657D01*
X74283990Y-34618220D01*
X74266391Y-34592481D01*
X74251856Y-34581109D01*
X74199410Y-34558364D01*
X74150322Y-34562122D01*
X74109227Y-34589884D01*
X74080758Y-34639152D01*
X74071631Y-34678257D01*
X74068007Y-34718247D01*
X73980372Y-34718247D01*
X73981285Y-34674249D01*
X73988196Y-34607384D01*
X74001884Y-34558695D01*
X74024096Y-34522849D01*
X74056574Y-34494513D01*
X74070733Y-34485355D01*
X74135053Y-34461507D01*
X74205473Y-34460006D01*
X74273595Y-34478966D01*
X74273595Y-34478966D01*
G37*
X74273595Y-34478966D02*
X74331021Y-34516497D01*
X74358719Y-34550096D01*
X74380662Y-34611064D01*
X74382405Y-34659308D01*
X74378457Y-34723816D01*
X74229686Y-34788934D01*
X74157349Y-34822202D01*
X74110084Y-34848964D01*
X74085507Y-34872144D01*
X74081237Y-34894667D01*
X74094889Y-34919455D01*
X74109943Y-34935886D01*
X74153746Y-34962235D01*
X74201389Y-34964081D01*
X74245145Y-34943546D01*
X74277289Y-34902752D01*
X74283038Y-34888347D01*
X74310576Y-34843356D01*
X74342258Y-34824182D01*
X74385714Y-34807779D01*
X74385714Y-34869966D01*
X74381872Y-34912283D01*
X74366823Y-34947969D01*
X74335280Y-34988943D01*
X74330592Y-34994267D01*
X74295506Y-35030720D01*
X74265347Y-35050283D01*
X74227615Y-35059283D01*
X74196335Y-35062230D01*
X74140385Y-35062965D01*
X74100555Y-35053660D01*
X74075708Y-35039846D01*
X74036656Y-35009467D01*
X74009625Y-34976613D01*
X73992517Y-34935294D01*
X73983238Y-34879521D01*
X73979693Y-34803305D01*
X73979410Y-34764622D01*
X73980372Y-34718247D01*
X74068007Y-34718247D01*
X74069023Y-34743126D01*
X74071556Y-34747200D01*
X74088274Y-34741665D01*
X74124249Y-34727017D01*
X74172331Y-34706190D01*
X74182386Y-34701714D01*
X74243152Y-34670814D01*
X74276632Y-34643657D01*
X74283990Y-34618220D01*
X74266391Y-34592481D01*
X74251856Y-34581109D01*
X74199410Y-34558364D01*
X74150322Y-34562122D01*
X74109227Y-34589884D01*
X74080758Y-34639152D01*
X74071631Y-34678257D01*
X74068007Y-34718247D01*
X73980372Y-34718247D01*
X73981285Y-34674249D01*
X73988196Y-34607384D01*
X74001884Y-34558695D01*
X74024096Y-34522849D01*
X74056574Y-34494513D01*
X74070733Y-34485355D01*
X74135053Y-34461507D01*
X74205473Y-34460006D01*
X74273595Y-34478966D01*
G36*
X73772600Y-34470752D02*
G01*
X73789948Y-34478334D01*
X73831356Y-34511128D01*
X73866765Y-34558547D01*
X73888664Y-34609151D01*
X73892229Y-34634098D01*
X73880279Y-34668927D01*
X73854067Y-34687357D01*
X73825964Y-34698516D01*
X73813095Y-34700572D01*
X73806829Y-34685649D01*
X73794456Y-34653175D01*
X73789028Y-34638502D01*
X73758590Y-34587744D01*
X73714520Y-34562427D01*
X73658010Y-34563206D01*
X73653825Y-34564203D01*
X73623655Y-34578507D01*
X73601476Y-34606393D01*
X73586327Y-34651287D01*
X73577250Y-34716615D01*
X73573286Y-34805804D01*
X73572914Y-34853261D01*
X73572730Y-34928071D01*
X73571522Y-34979069D01*
X73568309Y-35011471D01*
X73562109Y-35030495D01*
X73551940Y-35041356D01*
X73536819Y-35049272D01*
X73535946Y-35049670D01*
X73506828Y-35061981D01*
X73492403Y-35066514D01*
X73490186Y-35052809D01*
X73488289Y-35014925D01*
X73486847Y-34957715D01*
X73485998Y-34886027D01*
X73485829Y-34833565D01*
X73486692Y-34732047D01*
X73490070Y-34655032D01*
X73497142Y-34598023D01*
X73509088Y-34556526D01*
X73527090Y-34526043D01*
X73552327Y-34502080D01*
X73577247Y-34485355D01*
X73637171Y-34463097D01*
X73706911Y-34458076D01*
X73772600Y-34470752D01*
X73772600Y-34470752D01*
G37*
X73772600Y-34470752D02*
X73789948Y-34478334D01*
X73831356Y-34511128D01*
X73866765Y-34558547D01*
X73888664Y-34609151D01*
X73892229Y-34634098D01*
X73880279Y-34668927D01*
X73854067Y-34687357D01*
X73825964Y-34698516D01*
X73813095Y-34700572D01*
X73806829Y-34685649D01*
X73794456Y-34653175D01*
X73789028Y-34638502D01*
X73758590Y-34587744D01*
X73714520Y-34562427D01*
X73658010Y-34563206D01*
X73653825Y-34564203D01*
X73623655Y-34578507D01*
X73601476Y-34606393D01*
X73586327Y-34651287D01*
X73577250Y-34716615D01*
X73573286Y-34805804D01*
X73572914Y-34853261D01*
X73572730Y-34928071D01*
X73571522Y-34979069D01*
X73568309Y-35011471D01*
X73562109Y-35030495D01*
X73551940Y-35041356D01*
X73536819Y-35049272D01*
X73535946Y-35049670D01*
X73506828Y-35061981D01*
X73492403Y-35066514D01*
X73490186Y-35052809D01*
X73488289Y-35014925D01*
X73486847Y-34957715D01*
X73485998Y-34886027D01*
X73485829Y-34833565D01*
X73486692Y-34732047D01*
X73490070Y-34655032D01*
X73497142Y-34598023D01*
X73509088Y-34556526D01*
X73527090Y-34526043D01*
X73552327Y-34502080D01*
X73577247Y-34485355D01*
X73637171Y-34463097D01*
X73706911Y-34458076D01*
X73772600Y-34470752D01*
G36*
X73264876Y-34468335D02*
G01*
X73306667Y-34487344D01*
X73339469Y-34510378D01*
X73363503Y-34536133D01*
X73380097Y-34569358D01*
X73390577Y-34614800D01*
X73396271Y-34677207D01*
X73398507Y-34761327D01*
X73398743Y-34816721D01*
X73398743Y-35032826D01*
X73361774Y-35049670D01*
X73332656Y-35061981D01*
X73318231Y-35066514D01*
X73315472Y-35053025D01*
X73313282Y-35016653D01*
X73311942Y-34963542D01*
X73311657Y-34921372D01*
X73310434Y-34860447D01*
X73307136Y-34812115D01*
X73302321Y-34782518D01*
X73298496Y-34776229D01*
X73272783Y-34782652D01*
X73232418Y-34799125D01*
X73185679Y-34821458D01*
X73140845Y-34845457D01*
X73106193Y-34866930D01*
X73090002Y-34881685D01*
X73089938Y-34881845D01*
X73091330Y-34909152D01*
X73103818Y-34935219D01*
X73125743Y-34956392D01*
X73157743Y-34963474D01*
X73185092Y-34962649D01*
X73223826Y-34962042D01*
X73244158Y-34971116D01*
X73256369Y-34995092D01*
X73257909Y-34999613D01*
X73263203Y-35033806D01*
X73249047Y-35054568D01*
X73212148Y-35064462D01*
X73172289Y-35066292D01*
X73100562Y-35052727D01*
X73063432Y-35033355D01*
X73017576Y-34987845D01*
X72993256Y-34931983D01*
X72991073Y-34872957D01*
X73011629Y-34817953D01*
X73042549Y-34783486D01*
X73073420Y-34764189D01*
X73121942Y-34739759D01*
X73178485Y-34714985D01*
X73187910Y-34711199D01*
X73250019Y-34683791D01*
X73285822Y-34659634D01*
X73297337Y-34635619D01*
X73286580Y-34608635D01*
X73268114Y-34587543D01*
X73224469Y-34561572D01*
X73176446Y-34559624D01*
X73132406Y-34579637D01*
X73100709Y-34619551D01*
X73096549Y-34629848D01*
X73072327Y-34667724D01*
X73036965Y-34695842D01*
X72992343Y-34718917D01*
X72992343Y-34653485D01*
X72994969Y-34613506D01*
X73006230Y-34581997D01*
X73031199Y-34548378D01*
X73055169Y-34522484D01*
X73092441Y-34485817D01*
X73121401Y-34466121D01*
X73152505Y-34458220D01*
X73187713Y-34456914D01*
X73264876Y-34468335D01*
X73264876Y-34468335D01*
G37*
X73264876Y-34468335D02*
X73306667Y-34487344D01*
X73339469Y-34510378D01*
X73363503Y-34536133D01*
X73380097Y-34569358D01*
X73390577Y-34614800D01*
X73396271Y-34677207D01*
X73398507Y-34761327D01*
X73398743Y-34816721D01*
X73398743Y-35032826D01*
X73361774Y-35049670D01*
X73332656Y-35061981D01*
X73318231Y-35066514D01*
X73315472Y-35053025D01*
X73313282Y-35016653D01*
X73311942Y-34963542D01*
X73311657Y-34921372D01*
X73310434Y-34860447D01*
X73307136Y-34812115D01*
X73302321Y-34782518D01*
X73298496Y-34776229D01*
X73272783Y-34782652D01*
X73232418Y-34799125D01*
X73185679Y-34821458D01*
X73140845Y-34845457D01*
X73106193Y-34866930D01*
X73090002Y-34881685D01*
X73089938Y-34881845D01*
X73091330Y-34909152D01*
X73103818Y-34935219D01*
X73125743Y-34956392D01*
X73157743Y-34963474D01*
X73185092Y-34962649D01*
X73223826Y-34962042D01*
X73244158Y-34971116D01*
X73256369Y-34995092D01*
X73257909Y-34999613D01*
X73263203Y-35033806D01*
X73249047Y-35054568D01*
X73212148Y-35064462D01*
X73172289Y-35066292D01*
X73100562Y-35052727D01*
X73063432Y-35033355D01*
X73017576Y-34987845D01*
X72993256Y-34931983D01*
X72991073Y-34872957D01*
X73011629Y-34817953D01*
X73042549Y-34783486D01*
X73073420Y-34764189D01*
X73121942Y-34739759D01*
X73178485Y-34714985D01*
X73187910Y-34711199D01*
X73250019Y-34683791D01*
X73285822Y-34659634D01*
X73297337Y-34635619D01*
X73286580Y-34608635D01*
X73268114Y-34587543D01*
X73224469Y-34561572D01*
X73176446Y-34559624D01*
X73132406Y-34579637D01*
X73100709Y-34619551D01*
X73096549Y-34629848D01*
X73072327Y-34667724D01*
X73036965Y-34695842D01*
X72992343Y-34718917D01*
X72992343Y-34653485D01*
X72994969Y-34613506D01*
X73006230Y-34581997D01*
X73031199Y-34548378D01*
X73055169Y-34522484D01*
X73092441Y-34485817D01*
X73121401Y-34466121D01*
X73152505Y-34458220D01*
X73187713Y-34456914D01*
X73264876Y-34468335D01*
G36*
X72899833Y-34470663D02*
G01*
X72902048Y-34508850D01*
X72903784Y-34566886D01*
X72904899Y-34640180D01*
X72905257Y-34717055D01*
X72905257Y-34977196D01*
X72859326Y-35023127D01*
X72827675Y-35051429D01*
X72799890Y-35062893D01*
X72761915Y-35062168D01*
X72746840Y-35060321D01*
X72699726Y-35054948D01*
X72660756Y-35051869D01*
X72651257Y-35051585D01*
X72619233Y-35053445D01*
X72573432Y-35058114D01*
X72555674Y-35060321D01*
X72512057Y-35063735D01*
X72482745Y-35056320D01*
X72453680Y-35033427D01*
X72443188Y-35023127D01*
X72397257Y-34977196D01*
X72397257Y-34490602D01*
X72434226Y-34473758D01*
X72466059Y-34461282D01*
X72484683Y-34456914D01*
X72489458Y-34470718D01*
X72493921Y-34509286D01*
X72497775Y-34568356D01*
X72500722Y-34643663D01*
X72502143Y-34707286D01*
X72506114Y-34957657D01*
X72540759Y-34962556D01*
X72572268Y-34959131D01*
X72587708Y-34948041D01*
X72592023Y-34927308D01*
X72595708Y-34883145D01*
X72598469Y-34821146D01*
X72600012Y-34746909D01*
X72600235Y-34708706D01*
X72600457Y-34488783D01*
X72646166Y-34472849D01*
X72678518Y-34462015D01*
X72696115Y-34456962D01*
X72696623Y-34456914D01*
X72698388Y-34470648D01*
X72700329Y-34508730D01*
X72702282Y-34566482D01*
X72704084Y-34639227D01*
X72705343Y-34707286D01*
X72709314Y-34957657D01*
X72796400Y-34957657D01*
X72800396Y-34729240D01*
X72804392Y-34500822D01*
X72846847Y-34478868D01*
X72878192Y-34463793D01*
X72896744Y-34456951D01*
X72897279Y-34456914D01*
X72899833Y-34470663D01*
X72899833Y-34470663D01*
G37*
X72899833Y-34470663D02*
X72902048Y-34508850D01*
X72903784Y-34566886D01*
X72904899Y-34640180D01*
X72905257Y-34717055D01*
X72905257Y-34977196D01*
X72859326Y-35023127D01*
X72827675Y-35051429D01*
X72799890Y-35062893D01*
X72761915Y-35062168D01*
X72746840Y-35060321D01*
X72699726Y-35054948D01*
X72660756Y-35051869D01*
X72651257Y-35051585D01*
X72619233Y-35053445D01*
X72573432Y-35058114D01*
X72555674Y-35060321D01*
X72512057Y-35063735D01*
X72482745Y-35056320D01*
X72453680Y-35033427D01*
X72443188Y-35023127D01*
X72397257Y-34977196D01*
X72397257Y-34490602D01*
X72434226Y-34473758D01*
X72466059Y-34461282D01*
X72484683Y-34456914D01*
X72489458Y-34470718D01*
X72493921Y-34509286D01*
X72497775Y-34568356D01*
X72500722Y-34643663D01*
X72502143Y-34707286D01*
X72506114Y-34957657D01*
X72540759Y-34962556D01*
X72572268Y-34959131D01*
X72587708Y-34948041D01*
X72592023Y-34927308D01*
X72595708Y-34883145D01*
X72598469Y-34821146D01*
X72600012Y-34746909D01*
X72600235Y-34708706D01*
X72600457Y-34488783D01*
X72646166Y-34472849D01*
X72678518Y-34462015D01*
X72696115Y-34456962D01*
X72696623Y-34456914D01*
X72698388Y-34470648D01*
X72700329Y-34508730D01*
X72702282Y-34566482D01*
X72704084Y-34639227D01*
X72705343Y-34707286D01*
X72709314Y-34957657D01*
X72796400Y-34957657D01*
X72800396Y-34729240D01*
X72804392Y-34500822D01*
X72846847Y-34478868D01*
X72878192Y-34463793D01*
X72896744Y-34456951D01*
X72897279Y-34456914D01*
X72899833Y-34470663D01*
G36*
X72310117Y-34577358D02*
G01*
X72309933Y-34685837D01*
X72309219Y-34769287D01*
X72307675Y-34831704D01*
X72305001Y-34877085D01*
X72300894Y-34909429D01*
X72295055Y-34932733D01*
X72287182Y-34950995D01*
X72281221Y-34961418D01*
X72231855Y-35017945D01*
X72169264Y-35053377D01*
X72100013Y-35066090D01*
X72030668Y-35054463D01*
X71989375Y-35033568D01*
X71946025Y-34997422D01*
X71916481Y-34953276D01*
X71898655Y-34895462D01*
X71890463Y-34818313D01*
X71889302Y-34761714D01*
X71889458Y-34757647D01*
X71990857Y-34757647D01*
X71991476Y-34822550D01*
X71994314Y-34865514D01*
X72000840Y-34893622D01*
X72012523Y-34913953D01*
X72026483Y-34929288D01*
X72073365Y-34958890D01*
X72123701Y-34961419D01*
X72171276Y-34936705D01*
X72174979Y-34933356D01*
X72190783Y-34915935D01*
X72200693Y-34895209D01*
X72206058Y-34864362D01*
X72208228Y-34816577D01*
X72208571Y-34763748D01*
X72207827Y-34697381D01*
X72204748Y-34653106D01*
X72198061Y-34624009D01*
X72186496Y-34603173D01*
X72177013Y-34592107D01*
X72132960Y-34564198D01*
X72082224Y-34560843D01*
X72033796Y-34582159D01*
X72024450Y-34590073D01*
X72008540Y-34607647D01*
X71998610Y-34628587D01*
X71993278Y-34659782D01*
X71991163Y-34708122D01*
X71990857Y-34757647D01*
X71889458Y-34757647D01*
X71892810Y-34670568D01*
X71904726Y-34602086D01*
X71927135Y-34550600D01*
X71962124Y-34510443D01*
X71989375Y-34489861D01*
X72038907Y-34467625D01*
X72096316Y-34457304D01*
X72149682Y-34460067D01*
X72179543Y-34471212D01*
X72191261Y-34474383D01*
X72199037Y-34462557D01*
X72204465Y-34430866D01*
X72208571Y-34382593D01*
X72213067Y-34328829D01*
X72219313Y-34296482D01*
X72230676Y-34277985D01*
X72250528Y-34265770D01*
X72263000Y-34260362D01*
X72310171Y-34240601D01*
X72310117Y-34577358D01*
X72310117Y-34577358D01*
G37*
X72310117Y-34577358D02*
X72309933Y-34685837D01*
X72309219Y-34769287D01*
X72307675Y-34831704D01*
X72305001Y-34877085D01*
X72300894Y-34909429D01*
X72295055Y-34932733D01*
X72287182Y-34950995D01*
X72281221Y-34961418D01*
X72231855Y-35017945D01*
X72169264Y-35053377D01*
X72100013Y-35066090D01*
X72030668Y-35054463D01*
X71989375Y-35033568D01*
X71946025Y-34997422D01*
X71916481Y-34953276D01*
X71898655Y-34895462D01*
X71890463Y-34818313D01*
X71889302Y-34761714D01*
X71889458Y-34757647D01*
X71990857Y-34757647D01*
X71991476Y-34822550D01*
X71994314Y-34865514D01*
X72000840Y-34893622D01*
X72012523Y-34913953D01*
X72026483Y-34929288D01*
X72073365Y-34958890D01*
X72123701Y-34961419D01*
X72171276Y-34936705D01*
X72174979Y-34933356D01*
X72190783Y-34915935D01*
X72200693Y-34895209D01*
X72206058Y-34864362D01*
X72208228Y-34816577D01*
X72208571Y-34763748D01*
X72207827Y-34697381D01*
X72204748Y-34653106D01*
X72198061Y-34624009D01*
X72186496Y-34603173D01*
X72177013Y-34592107D01*
X72132960Y-34564198D01*
X72082224Y-34560843D01*
X72033796Y-34582159D01*
X72024450Y-34590073D01*
X72008540Y-34607647D01*
X71998610Y-34628587D01*
X71993278Y-34659782D01*
X71991163Y-34708122D01*
X71990857Y-34757647D01*
X71889458Y-34757647D01*
X71892810Y-34670568D01*
X71904726Y-34602086D01*
X71927135Y-34550600D01*
X71962124Y-34510443D01*
X71989375Y-34489861D01*
X72038907Y-34467625D01*
X72096316Y-34457304D01*
X72149682Y-34460067D01*
X72179543Y-34471212D01*
X72191261Y-34474383D01*
X72199037Y-34462557D01*
X72204465Y-34430866D01*
X72208571Y-34382593D01*
X72213067Y-34328829D01*
X72219313Y-34296482D01*
X72230676Y-34277985D01*
X72250528Y-34265770D01*
X72263000Y-34260362D01*
X72310171Y-34240601D01*
X72310117Y-34577358D01*
G36*
X71649926Y-34461755D02*
G01*
X71715858Y-34486084D01*
X71769273Y-34529117D01*
X71790164Y-34559409D01*
X71812939Y-34614994D01*
X71812466Y-34655186D01*
X71788562Y-34682217D01*
X71779717Y-34686813D01*
X71741530Y-34701144D01*
X71722028Y-34697472D01*
X71715422Y-34673407D01*
X71715086Y-34660114D01*
X71702992Y-34611210D01*
X71671471Y-34576999D01*
X71627659Y-34560476D01*
X71578695Y-34564634D01*
X71538894Y-34586227D01*
X71525450Y-34598544D01*
X71515921Y-34613487D01*
X71509485Y-34636075D01*
X71505317Y-34671328D01*
X71502597Y-34724266D01*
X71500502Y-34799907D01*
X71499960Y-34823857D01*
X71497981Y-34905790D01*
X71495731Y-34963455D01*
X71492357Y-35001608D01*
X71487006Y-35025004D01*
X71478824Y-35038398D01*
X71466959Y-35046545D01*
X71459362Y-35050144D01*
X71427102Y-35062452D01*
X71408111Y-35066514D01*
X71401836Y-35052948D01*
X71398006Y-35011934D01*
X71396600Y-34942999D01*
X71397598Y-34845669D01*
X71397908Y-34830657D01*
X71400101Y-34741859D01*
X71402693Y-34677019D01*
X71406382Y-34631067D01*
X71411864Y-34598935D01*
X71419835Y-34575553D01*
X71430993Y-34555852D01*
X71436830Y-34547410D01*
X71470296Y-34510057D01*
X71507727Y-34481003D01*
X71512309Y-34478467D01*
X71579426Y-34458443D01*
X71649926Y-34461755D01*
X71649926Y-34461755D01*
G37*
X71649926Y-34461755D02*
X71715858Y-34486084D01*
X71769273Y-34529117D01*
X71790164Y-34559409D01*
X71812939Y-34614994D01*
X71812466Y-34655186D01*
X71788562Y-34682217D01*
X71779717Y-34686813D01*
X71741530Y-34701144D01*
X71722028Y-34697472D01*
X71715422Y-34673407D01*
X71715086Y-34660114D01*
X71702992Y-34611210D01*
X71671471Y-34576999D01*
X71627659Y-34560476D01*
X71578695Y-34564634D01*
X71538894Y-34586227D01*
X71525450Y-34598544D01*
X71515921Y-34613487D01*
X71509485Y-34636075D01*
X71505317Y-34671328D01*
X71502597Y-34724266D01*
X71500502Y-34799907D01*
X71499960Y-34823857D01*
X71497981Y-34905790D01*
X71495731Y-34963455D01*
X71492357Y-35001608D01*
X71487006Y-35025004D01*
X71478824Y-35038398D01*
X71466959Y-35046545D01*
X71459362Y-35050144D01*
X71427102Y-35062452D01*
X71408111Y-35066514D01*
X71401836Y-35052948D01*
X71398006Y-35011934D01*
X71396600Y-34942999D01*
X71397598Y-34845669D01*
X71397908Y-34830657D01*
X71400101Y-34741859D01*
X71402693Y-34677019D01*
X71406382Y-34631067D01*
X71411864Y-34598935D01*
X71419835Y-34575553D01*
X71430993Y-34555852D01*
X71436830Y-34547410D01*
X71470296Y-34510057D01*
X71507727Y-34481003D01*
X71512309Y-34478467D01*
X71579426Y-34458443D01*
X71649926Y-34461755D01*
G36*
X71159744Y-34462968D02*
G01*
X71216616Y-34484087D01*
X71217267Y-34484493D01*
X71252440Y-34510380D01*
X71278407Y-34540633D01*
X71296670Y-34580058D01*
X71308732Y-34633462D01*
X71316096Y-34705651D01*
X71320264Y-34801432D01*
X71320629Y-34815078D01*
X71325876Y-35020842D01*
X71281716Y-35043678D01*
X71249763Y-35059110D01*
X71230470Y-35066423D01*
X71229578Y-35066514D01*
X71226239Y-35053022D01*
X71223587Y-35016626D01*
X71221956Y-34963452D01*
X71221600Y-34920393D01*
X71221592Y-34850641D01*
X71218403Y-34806837D01*
X71207288Y-34785944D01*
X71183501Y-34784925D01*
X71142296Y-34800741D01*
X71080086Y-34829815D01*
X71034341Y-34853963D01*
X71010813Y-34874913D01*
X71003896Y-34897747D01*
X71003886Y-34898877D01*
X71015299Y-34938212D01*
X71049092Y-34959462D01*
X71100809Y-34962539D01*
X71138061Y-34962006D01*
X71157703Y-34972735D01*
X71169952Y-34998505D01*
X71177002Y-35031337D01*
X71166842Y-35049966D01*
X71163017Y-35052632D01*
X71127001Y-35063340D01*
X71076566Y-35064856D01*
X71024626Y-35057759D01*
X70987822Y-35044788D01*
X70936938Y-35001585D01*
X70908014Y-34941446D01*
X70902286Y-34894462D01*
X70906657Y-34852082D01*
X70922475Y-34817488D01*
X70953797Y-34786763D01*
X71004678Y-34755990D01*
X71079176Y-34721252D01*
X71083714Y-34719288D01*
X71150821Y-34688287D01*
X71192232Y-34662862D01*
X71209981Y-34640014D01*
X71206107Y-34616745D01*
X71182643Y-34590056D01*
X71175627Y-34583914D01*
X71128630Y-34560100D01*
X71079933Y-34561103D01*
X71037522Y-34584451D01*
X71009384Y-34627675D01*
X71006769Y-34636160D01*
X70981308Y-34677308D01*
X70949001Y-34697128D01*
X70902286Y-34716770D01*
X70902286Y-34665950D01*
X70916496Y-34592082D01*
X70958675Y-34524327D01*
X70980624Y-34501661D01*
X71030517Y-34472569D01*
X71093967Y-34459400D01*
X71159744Y-34462968D01*
X71159744Y-34462968D01*
G37*
X71159744Y-34462968D02*
X71216616Y-34484087D01*
X71217267Y-34484493D01*
X71252440Y-34510380D01*
X71278407Y-34540633D01*
X71296670Y-34580058D01*
X71308732Y-34633462D01*
X71316096Y-34705651D01*
X71320264Y-34801432D01*
X71320629Y-34815078D01*
X71325876Y-35020842D01*
X71281716Y-35043678D01*
X71249763Y-35059110D01*
X71230470Y-35066423D01*
X71229578Y-35066514D01*
X71226239Y-35053022D01*
X71223587Y-35016626D01*
X71221956Y-34963452D01*
X71221600Y-34920393D01*
X71221592Y-34850641D01*
X71218403Y-34806837D01*
X71207288Y-34785944D01*
X71183501Y-34784925D01*
X71142296Y-34800741D01*
X71080086Y-34829815D01*
X71034341Y-34853963D01*
X71010813Y-34874913D01*
X71003896Y-34897747D01*
X71003886Y-34898877D01*
X71015299Y-34938212D01*
X71049092Y-34959462D01*
X71100809Y-34962539D01*
X71138061Y-34962006D01*
X71157703Y-34972735D01*
X71169952Y-34998505D01*
X71177002Y-35031337D01*
X71166842Y-35049966D01*
X71163017Y-35052632D01*
X71127001Y-35063340D01*
X71076566Y-35064856D01*
X71024626Y-35057759D01*
X70987822Y-35044788D01*
X70936938Y-35001585D01*
X70908014Y-34941446D01*
X70902286Y-34894462D01*
X70906657Y-34852082D01*
X70922475Y-34817488D01*
X70953797Y-34786763D01*
X71004678Y-34755990D01*
X71079176Y-34721252D01*
X71083714Y-34719288D01*
X71150821Y-34688287D01*
X71192232Y-34662862D01*
X71209981Y-34640014D01*
X71206107Y-34616745D01*
X71182643Y-34590056D01*
X71175627Y-34583914D01*
X71128630Y-34560100D01*
X71079933Y-34561103D01*
X71037522Y-34584451D01*
X71009384Y-34627675D01*
X71006769Y-34636160D01*
X70981308Y-34677308D01*
X70949001Y-34697128D01*
X70902286Y-34716770D01*
X70902286Y-34665950D01*
X70916496Y-34592082D01*
X70958675Y-34524327D01*
X70980624Y-34501661D01*
X71030517Y-34472569D01*
X71093967Y-34459400D01*
X71159744Y-34462968D01*
G36*
X70495886Y-34363289D02*
G01*
X70500139Y-34422613D01*
X70505025Y-34457572D01*
X70511795Y-34472820D01*
X70521702Y-34473015D01*
X70524914Y-34471195D01*
X70567644Y-34458015D01*
X70623227Y-34458785D01*
X70679737Y-34472333D01*
X70715082Y-34489861D01*
X70751321Y-34517861D01*
X70777813Y-34549549D01*
X70795999Y-34589813D01*
X70807322Y-34643543D01*
X70813222Y-34715626D01*
X70815143Y-34810951D01*
X70815177Y-34829237D01*
X70815200Y-35034646D01*
X70769491Y-35050580D01*
X70737027Y-35061420D01*
X70719215Y-35066468D01*
X70718691Y-35066514D01*
X70716937Y-35052828D01*
X70715444Y-35015076D01*
X70714326Y-34958224D01*
X70713697Y-34887234D01*
X70713600Y-34844073D01*
X70713398Y-34758973D01*
X70712358Y-34697981D01*
X70709831Y-34656177D01*
X70705164Y-34628642D01*
X70697707Y-34610456D01*
X70686811Y-34596698D01*
X70680007Y-34590073D01*
X70633272Y-34563375D01*
X70582272Y-34561375D01*
X70536001Y-34583955D01*
X70527444Y-34592107D01*
X70514893Y-34607436D01*
X70506188Y-34625618D01*
X70500631Y-34651909D01*
X70497526Y-34691562D01*
X70496176Y-34749832D01*
X70495886Y-34830173D01*
X70495886Y-35034646D01*
X70450177Y-35050580D01*
X70417713Y-35061420D01*
X70399901Y-35066468D01*
X70399377Y-35066514D01*
X70398037Y-35052623D01*
X70396828Y-35013439D01*
X70395801Y-34952700D01*
X70395002Y-34874141D01*
X70394481Y-34781498D01*
X70394286Y-34678509D01*
X70394286Y-34281342D01*
X70441457Y-34261444D01*
X70488629Y-34241547D01*
X70495886Y-34363289D01*
X70495886Y-34363289D01*
G37*
X70495886Y-34363289D02*
X70500139Y-34422613D01*
X70505025Y-34457572D01*
X70511795Y-34472820D01*
X70521702Y-34473015D01*
X70524914Y-34471195D01*
X70567644Y-34458015D01*
X70623227Y-34458785D01*
X70679737Y-34472333D01*
X70715082Y-34489861D01*
X70751321Y-34517861D01*
X70777813Y-34549549D01*
X70795999Y-34589813D01*
X70807322Y-34643543D01*
X70813222Y-34715626D01*
X70815143Y-34810951D01*
X70815177Y-34829237D01*
X70815200Y-35034646D01*
X70769491Y-35050580D01*
X70737027Y-35061420D01*
X70719215Y-35066468D01*
X70718691Y-35066514D01*
X70716937Y-35052828D01*
X70715444Y-35015076D01*
X70714326Y-34958224D01*
X70713697Y-34887234D01*
X70713600Y-34844073D01*
X70713398Y-34758973D01*
X70712358Y-34697981D01*
X70709831Y-34656177D01*
X70705164Y-34628642D01*
X70697707Y-34610456D01*
X70686811Y-34596698D01*
X70680007Y-34590073D01*
X70633272Y-34563375D01*
X70582272Y-34561375D01*
X70536001Y-34583955D01*
X70527444Y-34592107D01*
X70514893Y-34607436D01*
X70506188Y-34625618D01*
X70500631Y-34651909D01*
X70497526Y-34691562D01*
X70496176Y-34749832D01*
X70495886Y-34830173D01*
X70495886Y-35034646D01*
X70450177Y-35050580D01*
X70417713Y-35061420D01*
X70399901Y-35066468D01*
X70399377Y-35066514D01*
X70398037Y-35052623D01*
X70396828Y-35013439D01*
X70395801Y-34952700D01*
X70395002Y-34874141D01*
X70394481Y-34781498D01*
X70394286Y-34678509D01*
X70394286Y-34281342D01*
X70441457Y-34261444D01*
X70488629Y-34241547D01*
X70495886Y-34363289D01*
G36*
X69288303Y-34443239D02*
G01*
X69345527Y-34481735D01*
X69389749Y-34537335D01*
X69416167Y-34608086D01*
X69421510Y-34660162D01*
X69420903Y-34681893D01*
X69415822Y-34698531D01*
X69401855Y-34713437D01*
X69374589Y-34729973D01*
X69329612Y-34751498D01*
X69262511Y-34781374D01*
X69262171Y-34781524D01*
X69200407Y-34809813D01*
X69149759Y-34834933D01*
X69115404Y-34854179D01*
X69102518Y-34864848D01*
X69102514Y-34864934D01*
X69113872Y-34888166D01*
X69140431Y-34913774D01*
X69170923Y-34932221D01*
X69186370Y-34935886D01*
X69228515Y-34923212D01*
X69264808Y-34891471D01*
X69282517Y-34856572D01*
X69299552Y-34830845D01*
X69332922Y-34801546D01*
X69372149Y-34776235D01*
X69406756Y-34762471D01*
X69413993Y-34761714D01*
X69422139Y-34774160D01*
X69422630Y-34805972D01*
X69416643Y-34848866D01*
X69405357Y-34894558D01*
X69389950Y-34934761D01*
X69389171Y-34936322D01*
X69342804Y-35001062D01*
X69282711Y-35045097D01*
X69214465Y-35066711D01*
X69143638Y-35064185D01*
X69075804Y-35035804D01*
X69072788Y-35033808D01*
X69019427Y-34985448D01*
X68984340Y-34922352D01*
X68964922Y-34839387D01*
X68962316Y-34816078D01*
X68957701Y-34706055D01*
X68963233Y-34654748D01*
X69102514Y-34654748D01*
X69104324Y-34686753D01*
X69114222Y-34696093D01*
X69138898Y-34689105D01*
X69177795Y-34672587D01*
X69221275Y-34651881D01*
X69222356Y-34651333D01*
X69259209Y-34631949D01*
X69274000Y-34619013D01*
X69270353Y-34605451D01*
X69254995Y-34587632D01*
X69215923Y-34561845D01*
X69173846Y-34559950D01*
X69136103Y-34578717D01*
X69110034Y-34614915D01*
X69102514Y-34654748D01*
X68963233Y-34654748D01*
X68967194Y-34618027D01*
X68991550Y-34548212D01*
X69025456Y-34499302D01*
X69086653Y-34449878D01*
X69154063Y-34425359D01*
X69222880Y-34423797D01*
X69288303Y-34443239D01*
X69288303Y-34443239D01*
G37*
X69288303Y-34443239D02*
X69345527Y-34481735D01*
X69389749Y-34537335D01*
X69416167Y-34608086D01*
X69421510Y-34660162D01*
X69420903Y-34681893D01*
X69415822Y-34698531D01*
X69401855Y-34713437D01*
X69374589Y-34729973D01*
X69329612Y-34751498D01*
X69262511Y-34781374D01*
X69262171Y-34781524D01*
X69200407Y-34809813D01*
X69149759Y-34834933D01*
X69115404Y-34854179D01*
X69102518Y-34864848D01*
X69102514Y-34864934D01*
X69113872Y-34888166D01*
X69140431Y-34913774D01*
X69170923Y-34932221D01*
X69186370Y-34935886D01*
X69228515Y-34923212D01*
X69264808Y-34891471D01*
X69282517Y-34856572D01*
X69299552Y-34830845D01*
X69332922Y-34801546D01*
X69372149Y-34776235D01*
X69406756Y-34762471D01*
X69413993Y-34761714D01*
X69422139Y-34774160D01*
X69422630Y-34805972D01*
X69416643Y-34848866D01*
X69405357Y-34894558D01*
X69389950Y-34934761D01*
X69389171Y-34936322D01*
X69342804Y-35001062D01*
X69282711Y-35045097D01*
X69214465Y-35066711D01*
X69143638Y-35064185D01*
X69075804Y-35035804D01*
X69072788Y-35033808D01*
X69019427Y-34985448D01*
X68984340Y-34922352D01*
X68964922Y-34839387D01*
X68962316Y-34816078D01*
X68957701Y-34706055D01*
X68963233Y-34654748D01*
X69102514Y-34654748D01*
X69104324Y-34686753D01*
X69114222Y-34696093D01*
X69138898Y-34689105D01*
X69177795Y-34672587D01*
X69221275Y-34651881D01*
X69222356Y-34651333D01*
X69259209Y-34631949D01*
X69274000Y-34619013D01*
X69270353Y-34605451D01*
X69254995Y-34587632D01*
X69215923Y-34561845D01*
X69173846Y-34559950D01*
X69136103Y-34578717D01*
X69110034Y-34614915D01*
X69102514Y-34654748D01*
X68963233Y-34654748D01*
X68967194Y-34618027D01*
X68991550Y-34548212D01*
X69025456Y-34499302D01*
X69086653Y-34449878D01*
X69154063Y-34425359D01*
X69222880Y-34423797D01*
X69288303Y-34443239D01*
G36*
X68161115Y-34433962D02*
G01*
X68229145Y-34469733D01*
X68279351Y-34527301D01*
X68297185Y-34564312D01*
X68311063Y-34619882D01*
X68318167Y-34690096D01*
X68318840Y-34766727D01*
X68313427Y-34841552D01*
X68302270Y-34906342D01*
X68285714Y-34952873D01*
X68280626Y-34960887D01*
X68220355Y-35020707D01*
X68148769Y-35056535D01*
X68071092Y-35067020D01*
X67992548Y-35050810D01*
X67970689Y-35041092D01*
X67928122Y-35011143D01*
X67890763Y-34971433D01*
X67887232Y-34966397D01*
X67872881Y-34942124D01*
X67863394Y-34916178D01*
X67857790Y-34882022D01*
X67855086Y-34833119D01*
X67854299Y-34762935D01*
X67854286Y-34747200D01*
X67854322Y-34742192D01*
X67999429Y-34742192D01*
X68000273Y-34808430D01*
X68003596Y-34852386D01*
X68010583Y-34880779D01*
X68022416Y-34900325D01*
X68028457Y-34906857D01*
X68063186Y-34931680D01*
X68096903Y-34930548D01*
X68130995Y-34909016D01*
X68151329Y-34886029D01*
X68163371Y-34852478D01*
X68170134Y-34799569D01*
X68170598Y-34793399D01*
X68171752Y-34697513D01*
X68159688Y-34626299D01*
X68134570Y-34580194D01*
X68096560Y-34559635D01*
X68082992Y-34558514D01*
X68047364Y-34564152D01*
X68022994Y-34583686D01*
X68008093Y-34621042D01*
X68000875Y-34680150D01*
X67999429Y-34742192D01*
X67854322Y-34742192D01*
X67854826Y-34672413D01*
X67857096Y-34620159D01*
X67862068Y-34583949D01*
X67870713Y-34557299D01*
X67884005Y-34533722D01*
X67886943Y-34529338D01*
X67936313Y-34470249D01*
X67990109Y-34435947D01*
X68055602Y-34422331D01*
X68077842Y-34421665D01*
X68161115Y-34433962D01*
X68161115Y-34433962D01*
G37*
X68161115Y-34433962D02*
X68229145Y-34469733D01*
X68279351Y-34527301D01*
X68297185Y-34564312D01*
X68311063Y-34619882D01*
X68318167Y-34690096D01*
X68318840Y-34766727D01*
X68313427Y-34841552D01*
X68302270Y-34906342D01*
X68285714Y-34952873D01*
X68280626Y-34960887D01*
X68220355Y-35020707D01*
X68148769Y-35056535D01*
X68071092Y-35067020D01*
X67992548Y-35050810D01*
X67970689Y-35041092D01*
X67928122Y-35011143D01*
X67890763Y-34971433D01*
X67887232Y-34966397D01*
X67872881Y-34942124D01*
X67863394Y-34916178D01*
X67857790Y-34882022D01*
X67855086Y-34833119D01*
X67854299Y-34762935D01*
X67854286Y-34747200D01*
X67854322Y-34742192D01*
X67999429Y-34742192D01*
X68000273Y-34808430D01*
X68003596Y-34852386D01*
X68010583Y-34880779D01*
X68022416Y-34900325D01*
X68028457Y-34906857D01*
X68063186Y-34931680D01*
X68096903Y-34930548D01*
X68130995Y-34909016D01*
X68151329Y-34886029D01*
X68163371Y-34852478D01*
X68170134Y-34799569D01*
X68170598Y-34793399D01*
X68171752Y-34697513D01*
X68159688Y-34626299D01*
X68134570Y-34580194D01*
X68096560Y-34559635D01*
X68082992Y-34558514D01*
X68047364Y-34564152D01*
X68022994Y-34583686D01*
X68008093Y-34621042D01*
X68000875Y-34680150D01*
X67999429Y-34742192D01*
X67854322Y-34742192D01*
X67854826Y-34672413D01*
X67857096Y-34620159D01*
X67862068Y-34583949D01*
X67870713Y-34557299D01*
X67884005Y-34533722D01*
X67886943Y-34529338D01*
X67936313Y-34470249D01*
X67990109Y-34435947D01*
X68055602Y-34422331D01*
X68077842Y-34421665D01*
X68161115Y-34433962D01*
G36*
X69836093Y-34439780D02*
G01*
X69882672Y-34466723D01*
X69915057Y-34493466D01*
X69938742Y-34521484D01*
X69955059Y-34555748D01*
X69965339Y-34601227D01*
X69970914Y-34662892D01*
X69973116Y-34745711D01*
X69973371Y-34805246D01*
X69973371Y-35024391D01*
X69911686Y-35052044D01*
X69850000Y-35079697D01*
X69842743Y-34839670D01*
X69839744Y-34750028D01*
X69836598Y-34684962D01*
X69832701Y-34640026D01*
X69827447Y-34610770D01*
X69820231Y-34592748D01*
X69810450Y-34581511D01*
X69807312Y-34579079D01*
X69759761Y-34560083D01*
X69711697Y-34567600D01*
X69683086Y-34587543D01*
X69671447Y-34601675D01*
X69663391Y-34620220D01*
X69658271Y-34648334D01*
X69655441Y-34691173D01*
X69654256Y-34753895D01*
X69654057Y-34819261D01*
X69654018Y-34901268D01*
X69652614Y-34959316D01*
X69647914Y-34998465D01*
X69637987Y-35023780D01*
X69620903Y-35040323D01*
X69594732Y-35053156D01*
X69559775Y-35066491D01*
X69521596Y-35081007D01*
X69526141Y-34823389D01*
X69527971Y-34730519D01*
X69530112Y-34661889D01*
X69533181Y-34612711D01*
X69537794Y-34578198D01*
X69544568Y-34553562D01*
X69554119Y-34534016D01*
X69565634Y-34516770D01*
X69621190Y-34461680D01*
X69688980Y-34429822D01*
X69762713Y-34422191D01*
X69836093Y-34439780D01*
X69836093Y-34439780D01*
G37*
X69836093Y-34439780D02*
X69882672Y-34466723D01*
X69915057Y-34493466D01*
X69938742Y-34521484D01*
X69955059Y-34555748D01*
X69965339Y-34601227D01*
X69970914Y-34662892D01*
X69973116Y-34745711D01*
X69973371Y-34805246D01*
X69973371Y-35024391D01*
X69911686Y-35052044D01*
X69850000Y-35079697D01*
X69842743Y-34839670D01*
X69839744Y-34750028D01*
X69836598Y-34684962D01*
X69832701Y-34640026D01*
X69827447Y-34610770D01*
X69820231Y-34592748D01*
X69810450Y-34581511D01*
X69807312Y-34579079D01*
X69759761Y-34560083D01*
X69711697Y-34567600D01*
X69683086Y-34587543D01*
X69671447Y-34601675D01*
X69663391Y-34620220D01*
X69658271Y-34648334D01*
X69655441Y-34691173D01*
X69654256Y-34753895D01*
X69654057Y-34819261D01*
X69654018Y-34901268D01*
X69652614Y-34959316D01*
X69647914Y-34998465D01*
X69637987Y-35023780D01*
X69620903Y-35040323D01*
X69594732Y-35053156D01*
X69559775Y-35066491D01*
X69521596Y-35081007D01*
X69526141Y-34823389D01*
X69527971Y-34730519D01*
X69530112Y-34661889D01*
X69533181Y-34612711D01*
X69537794Y-34578198D01*
X69544568Y-34553562D01*
X69554119Y-34534016D01*
X69565634Y-34516770D01*
X69621190Y-34461680D01*
X69688980Y-34429822D01*
X69762713Y-34422191D01*
X69836093Y-34439780D01*
G36*
X68719744Y-34431918D02*
G01*
X68775201Y-34459568D01*
X68824148Y-34510480D01*
X68837629Y-34529338D01*
X68852314Y-34554015D01*
X68861842Y-34580816D01*
X68867293Y-34616587D01*
X68869747Y-34668169D01*
X68870286Y-34736267D01*
X68867852Y-34829588D01*
X68859394Y-34899657D01*
X68843174Y-34951931D01*
X68817454Y-34991869D01*
X68780497Y-35024929D01*
X68777782Y-35026886D01*
X68741360Y-35046908D01*
X68697502Y-35056815D01*
X68641724Y-35059257D01*
X68551048Y-35059257D01*
X68551010Y-35147283D01*
X68550166Y-35196308D01*
X68545024Y-35225065D01*
X68531587Y-35242311D01*
X68505858Y-35256808D01*
X68499679Y-35259769D01*
X68470764Y-35273648D01*
X68448376Y-35282414D01*
X68431729Y-35283171D01*
X68420036Y-35273023D01*
X68412510Y-35249073D01*
X68408366Y-35208426D01*
X68406815Y-35148186D01*
X68407071Y-35065455D01*
X68408349Y-34957339D01*
X68408748Y-34925000D01*
X68410185Y-34813524D01*
X68411472Y-34740603D01*
X68550971Y-34740603D01*
X68551755Y-34802499D01*
X68555240Y-34842997D01*
X68563124Y-34869708D01*
X68577105Y-34890244D01*
X68586597Y-34900260D01*
X68625404Y-34929567D01*
X68659763Y-34931952D01*
X68695216Y-34907750D01*
X68696114Y-34906857D01*
X68710539Y-34888153D01*
X68719313Y-34862732D01*
X68723739Y-34823584D01*
X68725118Y-34763697D01*
X68725143Y-34750430D01*
X68721812Y-34667901D01*
X68710969Y-34610691D01*
X68691340Y-34575766D01*
X68661650Y-34560094D01*
X68644491Y-34558514D01*
X68603766Y-34565926D01*
X68575832Y-34590330D01*
X68559017Y-34634980D01*
X68551650Y-34703130D01*
X68550971Y-34740603D01*
X68411472Y-34740603D01*
X68411708Y-34727245D01*
X68413677Y-34662333D01*
X68416450Y-34614958D01*
X68420388Y-34581290D01*
X68425849Y-34557498D01*
X68433192Y-34539753D01*
X68442777Y-34524224D01*
X68446887Y-34518381D01*
X68501405Y-34463185D01*
X68570336Y-34431890D01*
X68650072Y-34423165D01*
X68719744Y-34431918D01*
X68719744Y-34431918D01*
G37*
X68719744Y-34431918D02*
X68775201Y-34459568D01*
X68824148Y-34510480D01*
X68837629Y-34529338D01*
X68852314Y-34554015D01*
X68861842Y-34580816D01*
X68867293Y-34616587D01*
X68869747Y-34668169D01*
X68870286Y-34736267D01*
X68867852Y-34829588D01*
X68859394Y-34899657D01*
X68843174Y-34951931D01*
X68817454Y-34991869D01*
X68780497Y-35024929D01*
X68777782Y-35026886D01*
X68741360Y-35046908D01*
X68697502Y-35056815D01*
X68641724Y-35059257D01*
X68551048Y-35059257D01*
X68551010Y-35147283D01*
X68550166Y-35196308D01*
X68545024Y-35225065D01*
X68531587Y-35242311D01*
X68505858Y-35256808D01*
X68499679Y-35259769D01*
X68470764Y-35273648D01*
X68448376Y-35282414D01*
X68431729Y-35283171D01*
X68420036Y-35273023D01*
X68412510Y-35249073D01*
X68408366Y-35208426D01*
X68406815Y-35148186D01*
X68407071Y-35065455D01*
X68408349Y-34957339D01*
X68408748Y-34925000D01*
X68410185Y-34813524D01*
X68411472Y-34740603D01*
X68550971Y-34740603D01*
X68551755Y-34802499D01*
X68555240Y-34842997D01*
X68563124Y-34869708D01*
X68577105Y-34890244D01*
X68586597Y-34900260D01*
X68625404Y-34929567D01*
X68659763Y-34931952D01*
X68695216Y-34907750D01*
X68696114Y-34906857D01*
X68710539Y-34888153D01*
X68719313Y-34862732D01*
X68723739Y-34823584D01*
X68725118Y-34763697D01*
X68725143Y-34750430D01*
X68721812Y-34667901D01*
X68710969Y-34610691D01*
X68691340Y-34575766D01*
X68661650Y-34560094D01*
X68644491Y-34558514D01*
X68603766Y-34565926D01*
X68575832Y-34590330D01*
X68559017Y-34634980D01*
X68551650Y-34703130D01*
X68550971Y-34740603D01*
X68411472Y-34740603D01*
X68411708Y-34727245D01*
X68413677Y-34662333D01*
X68416450Y-34614958D01*
X68420388Y-34581290D01*
X68425849Y-34557498D01*
X68433192Y-34539753D01*
X68442777Y-34524224D01*
X68446887Y-34518381D01*
X68501405Y-34463185D01*
X68570336Y-34431890D01*
X68650072Y-34423165D01*
X68719744Y-34431918D01*
D11*
X76708000Y-38294000D02*
X77818000Y-38294000D01*
X77818000Y-38294000D02*
X77818000Y-39624000D01*
X66618000Y-38294000D02*
X66618000Y-51114000D01*
X66618000Y-51114000D02*
X75248000Y-51114000D01*
X75248000Y-38294000D02*
X75248000Y-51114000D01*
X66618000Y-38294000D02*
X75248000Y-38294000D01*
X66618000Y-48514000D02*
X75248000Y-48514000D01*
X66618000Y-45974000D02*
X75248000Y-45974000D01*
X66618000Y-43434000D02*
X75248000Y-43434000D01*
X66618000Y-40894000D02*
X75248000Y-40894000D01*
X75248000Y-50144000D02*
X75658000Y-50144000D01*
X75248000Y-49424000D02*
X75658000Y-49424000D01*
X75248000Y-47604000D02*
X75658000Y-47604000D01*
X75248000Y-46884000D02*
X75658000Y-46884000D01*
X75248000Y-45064000D02*
X75658000Y-45064000D01*
X75248000Y-44344000D02*
X75658000Y-44344000D01*
X75248000Y-42524000D02*
X75658000Y-42524000D01*
X75248000Y-41804000D02*
X75658000Y-41804000D01*
X75248000Y-39984000D02*
X75598000Y-39984000D01*
X75248000Y-39264000D02*
X75598000Y-39264000D01*
X66618000Y-40775900D02*
X75248000Y-40775900D01*
X66618000Y-40657805D02*
X75248000Y-40657805D01*
X66618000Y-40539710D02*
X75248000Y-40539710D01*
X66618000Y-40421615D02*
X75248000Y-40421615D01*
X66618000Y-40303520D02*
X75248000Y-40303520D01*
X66618000Y-40185425D02*
X75248000Y-40185425D01*
X66618000Y-40067330D02*
X75248000Y-40067330D01*
X66618000Y-39949235D02*
X75248000Y-39949235D01*
X66618000Y-39831140D02*
X75248000Y-39831140D01*
X66618000Y-39713045D02*
X75248000Y-39713045D01*
X66618000Y-39594950D02*
X75248000Y-39594950D01*
X66618000Y-39476855D02*
X75248000Y-39476855D01*
X66618000Y-39358760D02*
X75248000Y-39358760D01*
X66618000Y-39240665D02*
X75248000Y-39240665D01*
X66618000Y-39122570D02*
X75248000Y-39122570D01*
X66618000Y-39004475D02*
X75248000Y-39004475D01*
X66618000Y-38886380D02*
X75248000Y-38886380D01*
X66618000Y-38768285D02*
X75248000Y-38768285D01*
X66618000Y-38650190D02*
X75248000Y-38650190D01*
X66618000Y-38532095D02*
X75248000Y-38532095D01*
X66618000Y-38414000D02*
X75248000Y-38414000D01*
X94555000Y-32445000D02*
X94555000Y-31115000D01*
X95885000Y-32445000D02*
X94555000Y-32445000D01*
X97155000Y-32445000D02*
X97155000Y-29785000D01*
X97155000Y-29785000D02*
X99755000Y-29785000D01*
X97155000Y-32445000D02*
X99755000Y-32445000D01*
X99755000Y-32445000D02*
X99755000Y-29785000D01*
X92135000Y-29785000D02*
X92135000Y-31115000D01*
X90805000Y-29785000D02*
X92135000Y-29785000D01*
X89535000Y-29785000D02*
X89535000Y-32445000D01*
X89535000Y-32445000D02*
X86935000Y-32445000D01*
X89535000Y-29785000D02*
X86935000Y-29785000D01*
X86935000Y-29785000D02*
X86935000Y-32445000D01*
D10*
X68421619Y-52935142D02*
X68374000Y-52982761D01*
X68231142Y-53030380D01*
X68135904Y-53030380D01*
X67993047Y-52982761D01*
X67897809Y-52887523D01*
X67850190Y-52792285D01*
X67802571Y-52601809D01*
X67802571Y-52458952D01*
X67850190Y-52268476D01*
X67897809Y-52173238D01*
X67993047Y-52078000D01*
X68135904Y-52030380D01*
X68231142Y-52030380D01*
X68374000Y-52078000D01*
X68421619Y-52125619D01*
X68993047Y-53030380D02*
X68897809Y-52982761D01*
X68850190Y-52935142D01*
X68802571Y-52839904D01*
X68802571Y-52554190D01*
X68850190Y-52458952D01*
X68897809Y-52411333D01*
X68993047Y-52363714D01*
X69135904Y-52363714D01*
X69231142Y-52411333D01*
X69278761Y-52458952D01*
X69326380Y-52554190D01*
X69326380Y-52839904D01*
X69278761Y-52935142D01*
X69231142Y-52982761D01*
X69135904Y-53030380D01*
X68993047Y-53030380D01*
X69754952Y-52363714D02*
X69754952Y-53030380D01*
X69754952Y-52458952D02*
X69802571Y-52411333D01*
X69897809Y-52363714D01*
X70040666Y-52363714D01*
X70135904Y-52411333D01*
X70183523Y-52506571D01*
X70183523Y-53030380D01*
X70659714Y-52363714D02*
X70659714Y-53030380D01*
X70659714Y-52458952D02*
X70707333Y-52411333D01*
X70802571Y-52363714D01*
X70945428Y-52363714D01*
X71040666Y-52411333D01*
X71088285Y-52506571D01*
X71088285Y-53030380D01*
X71945428Y-52982761D02*
X71850190Y-53030380D01*
X71659714Y-53030380D01*
X71564476Y-52982761D01*
X71516857Y-52887523D01*
X71516857Y-52506571D01*
X71564476Y-52411333D01*
X71659714Y-52363714D01*
X71850190Y-52363714D01*
X71945428Y-52411333D01*
X71993047Y-52506571D01*
X71993047Y-52601809D01*
X71516857Y-52697047D01*
X72850190Y-52982761D02*
X72754952Y-53030380D01*
X72564476Y-53030380D01*
X72469238Y-52982761D01*
X72421619Y-52935142D01*
X72374000Y-52839904D01*
X72374000Y-52554190D01*
X72421619Y-52458952D01*
X72469238Y-52411333D01*
X72564476Y-52363714D01*
X72754952Y-52363714D01*
X72850190Y-52411333D01*
X73135904Y-52363714D02*
X73516857Y-52363714D01*
X73278761Y-52030380D02*
X73278761Y-52887523D01*
X73326380Y-52982761D01*
X73421619Y-53030380D01*
X73516857Y-53030380D01*
X73993047Y-53030380D02*
X73897809Y-52982761D01*
X73850190Y-52935142D01*
X73802571Y-52839904D01*
X73802571Y-52554190D01*
X73850190Y-52458952D01*
X73897809Y-52411333D01*
X73993047Y-52363714D01*
X74135904Y-52363714D01*
X74231142Y-52411333D01*
X74278761Y-52458952D01*
X74326380Y-52554190D01*
X74326380Y-52839904D01*
X74278761Y-52935142D01*
X74231142Y-52982761D01*
X74135904Y-53030380D01*
X73993047Y-53030380D01*
X74754952Y-53030380D02*
X74754952Y-52363714D01*
X74754952Y-52554190D02*
X74802571Y-52458952D01*
X74850190Y-52411333D01*
X74945428Y-52363714D01*
X75040666Y-52363714D01*
M02*
