G04 #@! TF.GenerationSoftware,KiCad,Pcbnew,(5.1.2)-2*
G04 #@! TF.CreationDate,2019-08-08T14:41:15+02:00*
G04 #@! TF.ProjectId,esp8266_8x8MatrixLed,65737038-3236-4365-9f38-78384d617472,rev?*
G04 #@! TF.SameCoordinates,Original*
G04 #@! TF.FileFunction,Copper,L2,Bot*
G04 #@! TF.FilePolarity,Positive*
%FSLAX46Y46*%
G04 Gerber Fmt 4.6, Leading zero omitted, Abs format (unit mm)*
G04 Created by KiCad (PCBNEW (5.1.2)-2) date 2019-08-08 14:41:15*
%MOMM*%
%LPD*%
G04 APERTURE LIST*
%ADD10O,1.600000X2.000000*%
%ADD11R,2.000000X2.000000*%
%ADD12O,1.700000X1.700000*%
%ADD13R,1.700000X1.700000*%
%ADD14C,3.100000*%
%ADD15C,0.250000*%
%ADD16C,0.254000*%
G04 APERTURE END LIST*
D10*
X88265000Y-34798000D03*
X90805000Y-34798000D03*
X93345000Y-34798000D03*
X95885000Y-34798000D03*
X98425000Y-34798000D03*
X100965000Y-34798000D03*
X103505000Y-34798000D03*
X106045000Y-34798000D03*
X106045000Y-57658000D03*
X103505000Y-57658000D03*
X100965000Y-57658000D03*
X98425000Y-57658000D03*
X95885000Y-57658000D03*
X93345000Y-57658000D03*
D11*
X88265000Y-57658000D03*
D10*
X90805000Y-57658000D03*
D12*
X76708000Y-49784000D03*
X76708000Y-47244000D03*
X76708000Y-44704000D03*
X76708000Y-42164000D03*
D13*
X76708000Y-39624000D03*
D12*
X98425000Y-31115000D03*
D13*
X95885000Y-31115000D03*
D12*
X88265000Y-31115000D03*
D13*
X90805000Y-31115000D03*
D14*
X111760000Y-31750000D03*
X111760000Y-58420000D03*
X65532000Y-58420000D03*
X65532000Y-31750000D03*
D15*
X95885000Y-57458000D02*
X95885000Y-57658000D01*
X83980999Y-45553999D02*
X95885000Y-57458000D01*
X77557999Y-45553999D02*
X83980999Y-45553999D01*
X76708000Y-44704000D02*
X77557999Y-45553999D01*
X98425000Y-57458000D02*
X98425000Y-57658000D01*
X83980999Y-43013999D02*
X98425000Y-57458000D01*
X77557999Y-43013999D02*
X83980999Y-43013999D01*
X76708000Y-42164000D02*
X77557999Y-43013999D01*
X100965000Y-57458000D02*
X100965000Y-57658000D01*
X83131000Y-39624000D02*
X100965000Y-57458000D01*
X76708000Y-39624000D02*
X83131000Y-39624000D01*
D16*
G36*
X111122659Y-29648969D02*
G01*
X110725015Y-29813678D01*
X110367144Y-30052800D01*
X110062800Y-30357144D01*
X109823678Y-30715015D01*
X109658969Y-31112659D01*
X109575000Y-31534796D01*
X109575000Y-31965204D01*
X109658969Y-32387341D01*
X109823678Y-32784985D01*
X110062800Y-33142856D01*
X110367144Y-33447200D01*
X110725015Y-33686322D01*
X111122659Y-33851031D01*
X111544796Y-33935000D01*
X111975204Y-33935000D01*
X112397341Y-33851031D01*
X112794985Y-33686322D01*
X113152856Y-33447200D01*
X113457200Y-33142856D01*
X113640001Y-32869275D01*
X113640000Y-57300723D01*
X113457200Y-57027144D01*
X113152856Y-56722800D01*
X112794985Y-56483678D01*
X112397341Y-56318969D01*
X111975204Y-56235000D01*
X111544796Y-56235000D01*
X111122659Y-56318969D01*
X110725015Y-56483678D01*
X110367144Y-56722800D01*
X110062800Y-57027144D01*
X109823678Y-57385015D01*
X109658969Y-57782659D01*
X109575000Y-58204796D01*
X109575000Y-58635204D01*
X109658969Y-59057341D01*
X109823678Y-59454985D01*
X110062800Y-59812856D01*
X110367144Y-60117200D01*
X110640723Y-60300000D01*
X66651277Y-60300000D01*
X66924856Y-60117200D01*
X67229200Y-59812856D01*
X67468322Y-59454985D01*
X67633031Y-59057341D01*
X67717000Y-58635204D01*
X67717000Y-58204796D01*
X67633031Y-57782659D01*
X67468322Y-57385015D01*
X67229200Y-57027144D01*
X66924856Y-56722800D01*
X66566985Y-56483678D01*
X66169341Y-56318969D01*
X65747204Y-56235000D01*
X65316796Y-56235000D01*
X64894659Y-56318969D01*
X64497015Y-56483678D01*
X64139144Y-56722800D01*
X63834800Y-57027144D01*
X63652000Y-57300723D01*
X63652000Y-49784000D01*
X75215815Y-49784000D01*
X75244487Y-50075111D01*
X75329401Y-50355034D01*
X75467294Y-50613014D01*
X75652866Y-50839134D01*
X75878986Y-51024706D01*
X76136966Y-51162599D01*
X76416889Y-51247513D01*
X76635050Y-51269000D01*
X76780950Y-51269000D01*
X76999111Y-51247513D01*
X77279034Y-51162599D01*
X77537014Y-51024706D01*
X77763134Y-50839134D01*
X77948706Y-50613014D01*
X78086599Y-50355034D01*
X78171513Y-50075111D01*
X78200185Y-49784000D01*
X78171513Y-49492889D01*
X78086599Y-49212966D01*
X77948706Y-48954986D01*
X77763134Y-48728866D01*
X77537014Y-48543294D01*
X77472477Y-48508799D01*
X77589355Y-48439178D01*
X77805588Y-48244269D01*
X77979641Y-48010920D01*
X78104825Y-47748099D01*
X78149476Y-47600890D01*
X78028155Y-47371000D01*
X76835000Y-47371000D01*
X76835000Y-47391000D01*
X76581000Y-47391000D01*
X76581000Y-47371000D01*
X75387845Y-47371000D01*
X75266524Y-47600890D01*
X75311175Y-47748099D01*
X75436359Y-48010920D01*
X75610412Y-48244269D01*
X75826645Y-48439178D01*
X75943523Y-48508799D01*
X75878986Y-48543294D01*
X75652866Y-48728866D01*
X75467294Y-48954986D01*
X75329401Y-49212966D01*
X75244487Y-49492889D01*
X75215815Y-49784000D01*
X63652000Y-49784000D01*
X63652000Y-42164000D01*
X75215815Y-42164000D01*
X75244487Y-42455111D01*
X75329401Y-42735034D01*
X75467294Y-42993014D01*
X75652866Y-43219134D01*
X75878986Y-43404706D01*
X75933791Y-43434000D01*
X75878986Y-43463294D01*
X75652866Y-43648866D01*
X75467294Y-43874986D01*
X75329401Y-44132966D01*
X75244487Y-44412889D01*
X75215815Y-44704000D01*
X75244487Y-44995111D01*
X75329401Y-45275034D01*
X75467294Y-45533014D01*
X75652866Y-45759134D01*
X75878986Y-45944706D01*
X75943523Y-45979201D01*
X75826645Y-46048822D01*
X75610412Y-46243731D01*
X75436359Y-46477080D01*
X75311175Y-46739901D01*
X75266524Y-46887110D01*
X75387845Y-47117000D01*
X76581000Y-47117000D01*
X76581000Y-47097000D01*
X76835000Y-47097000D01*
X76835000Y-47117000D01*
X78028155Y-47117000D01*
X78149476Y-46887110D01*
X78104825Y-46739901D01*
X77979641Y-46477080D01*
X77858000Y-46313999D01*
X83666198Y-46313999D01*
X93370796Y-56018598D01*
X93345000Y-56016057D01*
X93063691Y-56043764D01*
X92793192Y-56125818D01*
X92543899Y-56259068D01*
X92325392Y-56438393D01*
X92146068Y-56656900D01*
X92075000Y-56789858D01*
X92003932Y-56656899D01*
X91824607Y-56438392D01*
X91606100Y-56259068D01*
X91356807Y-56125818D01*
X91086308Y-56043764D01*
X90805000Y-56016057D01*
X90523691Y-56043764D01*
X90253192Y-56125818D01*
X90003899Y-56259068D01*
X89842559Y-56391477D01*
X89795537Y-56303506D01*
X89716185Y-56206815D01*
X89619494Y-56127463D01*
X89509180Y-56068498D01*
X89389482Y-56032188D01*
X89265000Y-56019928D01*
X87265000Y-56019928D01*
X87140518Y-56032188D01*
X87020820Y-56068498D01*
X86910506Y-56127463D01*
X86813815Y-56206815D01*
X86734463Y-56303506D01*
X86675498Y-56413820D01*
X86639188Y-56533518D01*
X86626928Y-56658000D01*
X86626928Y-58658000D01*
X86639188Y-58782482D01*
X86675498Y-58902180D01*
X86734463Y-59012494D01*
X86813815Y-59109185D01*
X86910506Y-59188537D01*
X87020820Y-59247502D01*
X87140518Y-59283812D01*
X87265000Y-59296072D01*
X89265000Y-59296072D01*
X89389482Y-59283812D01*
X89509180Y-59247502D01*
X89619494Y-59188537D01*
X89716185Y-59109185D01*
X89795537Y-59012494D01*
X89842559Y-58924523D01*
X90003900Y-59056932D01*
X90253193Y-59190182D01*
X90523692Y-59272236D01*
X90805000Y-59299943D01*
X91086309Y-59272236D01*
X91356808Y-59190182D01*
X91606101Y-59056932D01*
X91824608Y-58877608D01*
X92003932Y-58659101D01*
X92075000Y-58526142D01*
X92146068Y-58659101D01*
X92325393Y-58877608D01*
X92543900Y-59056932D01*
X92793193Y-59190182D01*
X93063692Y-59272236D01*
X93345000Y-59299943D01*
X93626309Y-59272236D01*
X93896808Y-59190182D01*
X94146101Y-59056932D01*
X94364608Y-58877608D01*
X94543932Y-58659101D01*
X94615000Y-58526142D01*
X94686068Y-58659101D01*
X94865393Y-58877608D01*
X95083900Y-59056932D01*
X95333193Y-59190182D01*
X95603692Y-59272236D01*
X95885000Y-59299943D01*
X96166309Y-59272236D01*
X96436808Y-59190182D01*
X96686101Y-59056932D01*
X96904608Y-58877608D01*
X97083932Y-58659101D01*
X97155000Y-58526142D01*
X97226068Y-58659101D01*
X97405393Y-58877608D01*
X97623900Y-59056932D01*
X97873193Y-59190182D01*
X98143692Y-59272236D01*
X98425000Y-59299943D01*
X98706309Y-59272236D01*
X98976808Y-59190182D01*
X99226101Y-59056932D01*
X99444608Y-58877608D01*
X99623932Y-58659101D01*
X99695000Y-58526142D01*
X99766068Y-58659101D01*
X99945393Y-58877608D01*
X100163900Y-59056932D01*
X100413193Y-59190182D01*
X100683692Y-59272236D01*
X100965000Y-59299943D01*
X101246309Y-59272236D01*
X101516808Y-59190182D01*
X101766101Y-59056932D01*
X101984608Y-58877608D01*
X102163932Y-58659101D01*
X102235000Y-58526142D01*
X102306068Y-58659101D01*
X102485393Y-58877608D01*
X102703900Y-59056932D01*
X102953193Y-59190182D01*
X103223692Y-59272236D01*
X103505000Y-59299943D01*
X103786309Y-59272236D01*
X104056808Y-59190182D01*
X104306101Y-59056932D01*
X104524608Y-58877608D01*
X104703932Y-58659101D01*
X104775000Y-58526142D01*
X104846068Y-58659101D01*
X105025393Y-58877608D01*
X105243900Y-59056932D01*
X105493193Y-59190182D01*
X105763692Y-59272236D01*
X106045000Y-59299943D01*
X106326309Y-59272236D01*
X106596808Y-59190182D01*
X106846101Y-59056932D01*
X107064608Y-58877608D01*
X107243932Y-58659101D01*
X107377182Y-58409807D01*
X107459236Y-58139308D01*
X107480000Y-57928491D01*
X107480000Y-57387508D01*
X107459236Y-57176691D01*
X107377182Y-56906192D01*
X107243932Y-56656899D01*
X107064607Y-56438392D01*
X106846100Y-56259068D01*
X106596807Y-56125818D01*
X106326308Y-56043764D01*
X106045000Y-56016057D01*
X105763691Y-56043764D01*
X105493192Y-56125818D01*
X105243899Y-56259068D01*
X105025392Y-56438393D01*
X104846068Y-56656900D01*
X104775000Y-56789858D01*
X104703932Y-56656899D01*
X104524607Y-56438392D01*
X104306100Y-56259068D01*
X104056807Y-56125818D01*
X103786308Y-56043764D01*
X103505000Y-56016057D01*
X103223691Y-56043764D01*
X102953192Y-56125818D01*
X102703899Y-56259068D01*
X102485392Y-56438393D01*
X102306068Y-56656900D01*
X102235000Y-56789858D01*
X102163932Y-56656899D01*
X101984607Y-56438392D01*
X101766100Y-56259068D01*
X101516807Y-56125818D01*
X101246308Y-56043764D01*
X100965000Y-56016057D01*
X100683691Y-56043764D01*
X100639094Y-56057292D01*
X83694804Y-39113003D01*
X83671001Y-39083999D01*
X83555276Y-38989026D01*
X83423247Y-38918454D01*
X83279986Y-38874997D01*
X83168333Y-38864000D01*
X83168322Y-38864000D01*
X83131000Y-38860324D01*
X83093678Y-38864000D01*
X78196072Y-38864000D01*
X78196072Y-38774000D01*
X78183812Y-38649518D01*
X78147502Y-38529820D01*
X78088537Y-38419506D01*
X78009185Y-38322815D01*
X77912494Y-38243463D01*
X77802180Y-38184498D01*
X77682482Y-38148188D01*
X77558000Y-38135928D01*
X75858000Y-38135928D01*
X75733518Y-38148188D01*
X75613820Y-38184498D01*
X75503506Y-38243463D01*
X75406815Y-38322815D01*
X75327463Y-38419506D01*
X75268498Y-38529820D01*
X75232188Y-38649518D01*
X75219928Y-38774000D01*
X75219928Y-40474000D01*
X75232188Y-40598482D01*
X75268498Y-40718180D01*
X75327463Y-40828494D01*
X75406815Y-40925185D01*
X75503506Y-41004537D01*
X75613820Y-41063502D01*
X75682687Y-41084393D01*
X75652866Y-41108866D01*
X75467294Y-41334986D01*
X75329401Y-41592966D01*
X75244487Y-41872889D01*
X75215815Y-42164000D01*
X63652000Y-42164000D01*
X63652000Y-34527509D01*
X86830000Y-34527509D01*
X86830000Y-35068492D01*
X86850764Y-35279309D01*
X86932818Y-35549808D01*
X87066068Y-35799101D01*
X87245393Y-36017608D01*
X87463900Y-36196932D01*
X87713193Y-36330182D01*
X87983692Y-36412236D01*
X88265000Y-36439943D01*
X88546309Y-36412236D01*
X88816808Y-36330182D01*
X89066101Y-36196932D01*
X89284608Y-36017608D01*
X89463932Y-35799101D01*
X89535000Y-35666142D01*
X89606068Y-35799101D01*
X89785393Y-36017608D01*
X90003900Y-36196932D01*
X90253193Y-36330182D01*
X90523692Y-36412236D01*
X90805000Y-36439943D01*
X91086309Y-36412236D01*
X91356808Y-36330182D01*
X91606101Y-36196932D01*
X91824608Y-36017608D01*
X92003932Y-35799101D01*
X92075000Y-35666142D01*
X92146068Y-35799101D01*
X92325393Y-36017608D01*
X92543900Y-36196932D01*
X92793193Y-36330182D01*
X93063692Y-36412236D01*
X93345000Y-36439943D01*
X93626309Y-36412236D01*
X93896808Y-36330182D01*
X94146101Y-36196932D01*
X94364608Y-36017608D01*
X94543932Y-35799101D01*
X94615000Y-35666142D01*
X94686068Y-35799101D01*
X94865393Y-36017608D01*
X95083900Y-36196932D01*
X95333193Y-36330182D01*
X95603692Y-36412236D01*
X95885000Y-36439943D01*
X96166309Y-36412236D01*
X96436808Y-36330182D01*
X96686101Y-36196932D01*
X96904608Y-36017608D01*
X97083932Y-35799101D01*
X97155000Y-35666142D01*
X97226068Y-35799101D01*
X97405393Y-36017608D01*
X97623900Y-36196932D01*
X97873193Y-36330182D01*
X98143692Y-36412236D01*
X98425000Y-36439943D01*
X98706309Y-36412236D01*
X98976808Y-36330182D01*
X99226101Y-36196932D01*
X99444608Y-36017608D01*
X99623932Y-35799101D01*
X99695000Y-35666142D01*
X99766068Y-35799101D01*
X99945393Y-36017608D01*
X100163900Y-36196932D01*
X100413193Y-36330182D01*
X100683692Y-36412236D01*
X100965000Y-36439943D01*
X101246309Y-36412236D01*
X101516808Y-36330182D01*
X101766101Y-36196932D01*
X101984608Y-36017608D01*
X102163932Y-35799101D01*
X102233122Y-35669655D01*
X102240570Y-35687227D01*
X102399327Y-35920662D01*
X102600575Y-36118639D01*
X102836579Y-36273551D01*
X103098270Y-36379444D01*
X103155961Y-36389904D01*
X103378000Y-36267915D01*
X103378000Y-34925000D01*
X103358000Y-34925000D01*
X103358000Y-34671000D01*
X103378000Y-34671000D01*
X103378000Y-33328085D01*
X103632000Y-33328085D01*
X103632000Y-34671000D01*
X103652000Y-34671000D01*
X103652000Y-34925000D01*
X103632000Y-34925000D01*
X103632000Y-36267915D01*
X103854039Y-36389904D01*
X103911730Y-36379444D01*
X104173421Y-36273551D01*
X104409425Y-36118639D01*
X104610673Y-35920662D01*
X104769430Y-35687227D01*
X104776878Y-35669655D01*
X104846068Y-35799101D01*
X105025393Y-36017608D01*
X105243900Y-36196932D01*
X105493193Y-36330182D01*
X105763692Y-36412236D01*
X106045000Y-36439943D01*
X106326309Y-36412236D01*
X106596808Y-36330182D01*
X106846101Y-36196932D01*
X107064608Y-36017608D01*
X107243932Y-35799101D01*
X107377182Y-35549807D01*
X107459236Y-35279308D01*
X107480000Y-35068491D01*
X107480000Y-34527508D01*
X107459236Y-34316691D01*
X107377182Y-34046192D01*
X107243932Y-33796899D01*
X107064607Y-33578392D01*
X106846100Y-33399068D01*
X106596807Y-33265818D01*
X106326308Y-33183764D01*
X106045000Y-33156057D01*
X105763691Y-33183764D01*
X105493192Y-33265818D01*
X105243899Y-33399068D01*
X105025392Y-33578393D01*
X104846068Y-33796900D01*
X104776878Y-33926345D01*
X104769430Y-33908773D01*
X104610673Y-33675338D01*
X104409425Y-33477361D01*
X104173421Y-33322449D01*
X103911730Y-33216556D01*
X103854039Y-33206096D01*
X103632000Y-33328085D01*
X103378000Y-33328085D01*
X103155961Y-33206096D01*
X103098270Y-33216556D01*
X102836579Y-33322449D01*
X102600575Y-33477361D01*
X102399327Y-33675338D01*
X102240570Y-33908773D01*
X102233122Y-33926345D01*
X102163932Y-33796899D01*
X101984607Y-33578392D01*
X101766100Y-33399068D01*
X101516807Y-33265818D01*
X101246308Y-33183764D01*
X100965000Y-33156057D01*
X100683691Y-33183764D01*
X100413192Y-33265818D01*
X100163899Y-33399068D01*
X99945392Y-33578393D01*
X99766068Y-33796900D01*
X99695000Y-33929858D01*
X99623932Y-33796899D01*
X99444607Y-33578392D01*
X99226100Y-33399068D01*
X98976807Y-33265818D01*
X98706308Y-33183764D01*
X98425000Y-33156057D01*
X98143691Y-33183764D01*
X97873192Y-33265818D01*
X97623899Y-33399068D01*
X97405392Y-33578393D01*
X97226068Y-33796900D01*
X97155000Y-33929858D01*
X97083932Y-33796899D01*
X96904607Y-33578392D01*
X96686100Y-33399068D01*
X96436807Y-33265818D01*
X96166308Y-33183764D01*
X95885000Y-33156057D01*
X95603691Y-33183764D01*
X95333192Y-33265818D01*
X95083899Y-33399068D01*
X94865392Y-33578393D01*
X94686068Y-33796900D01*
X94615000Y-33929858D01*
X94543932Y-33796899D01*
X94364607Y-33578392D01*
X94146100Y-33399068D01*
X93896807Y-33265818D01*
X93626308Y-33183764D01*
X93345000Y-33156057D01*
X93063691Y-33183764D01*
X92793192Y-33265818D01*
X92543899Y-33399068D01*
X92325392Y-33578393D01*
X92146068Y-33796900D01*
X92075000Y-33929858D01*
X92003932Y-33796899D01*
X91824607Y-33578392D01*
X91606100Y-33399068D01*
X91356807Y-33265818D01*
X91086308Y-33183764D01*
X90805000Y-33156057D01*
X90523691Y-33183764D01*
X90253192Y-33265818D01*
X90003899Y-33399068D01*
X89785392Y-33578393D01*
X89606068Y-33796900D01*
X89535000Y-33929858D01*
X89463932Y-33796899D01*
X89284607Y-33578392D01*
X89066100Y-33399068D01*
X88816807Y-33265818D01*
X88546308Y-33183764D01*
X88265000Y-33156057D01*
X87983691Y-33183764D01*
X87713192Y-33265818D01*
X87463899Y-33399068D01*
X87245392Y-33578393D01*
X87066068Y-33796900D01*
X86932818Y-34046193D01*
X86850764Y-34316692D01*
X86830000Y-34527509D01*
X63652000Y-34527509D01*
X63652000Y-32869277D01*
X63834800Y-33142856D01*
X64139144Y-33447200D01*
X64497015Y-33686322D01*
X64894659Y-33851031D01*
X65316796Y-33935000D01*
X65747204Y-33935000D01*
X66169341Y-33851031D01*
X66566985Y-33686322D01*
X66924856Y-33447200D01*
X67229200Y-33142856D01*
X67468322Y-32784985D01*
X67633031Y-32387341D01*
X67717000Y-31965204D01*
X67717000Y-31534796D01*
X67633497Y-31115000D01*
X86772815Y-31115000D01*
X86801487Y-31406111D01*
X86886401Y-31686034D01*
X87024294Y-31944014D01*
X87209866Y-32170134D01*
X87435986Y-32355706D01*
X87693966Y-32493599D01*
X87973889Y-32578513D01*
X88192050Y-32600000D01*
X88337950Y-32600000D01*
X88556111Y-32578513D01*
X88836034Y-32493599D01*
X89094014Y-32355706D01*
X89320134Y-32170134D01*
X89344607Y-32140313D01*
X89365498Y-32209180D01*
X89424463Y-32319494D01*
X89503815Y-32416185D01*
X89600506Y-32495537D01*
X89710820Y-32554502D01*
X89830518Y-32590812D01*
X89955000Y-32603072D01*
X90519250Y-32600000D01*
X90678000Y-32441250D01*
X90678000Y-31242000D01*
X90932000Y-31242000D01*
X90932000Y-32441250D01*
X91090750Y-32600000D01*
X91655000Y-32603072D01*
X91779482Y-32590812D01*
X91899180Y-32554502D01*
X92009494Y-32495537D01*
X92106185Y-32416185D01*
X92185537Y-32319494D01*
X92244502Y-32209180D01*
X92280812Y-32089482D01*
X92293072Y-31965000D01*
X94396928Y-31965000D01*
X94409188Y-32089482D01*
X94445498Y-32209180D01*
X94504463Y-32319494D01*
X94583815Y-32416185D01*
X94680506Y-32495537D01*
X94790820Y-32554502D01*
X94910518Y-32590812D01*
X95035000Y-32603072D01*
X95599250Y-32600000D01*
X95758000Y-32441250D01*
X95758000Y-31242000D01*
X94558750Y-31242000D01*
X94400000Y-31400750D01*
X94396928Y-31965000D01*
X92293072Y-31965000D01*
X92290000Y-31400750D01*
X92131250Y-31242000D01*
X90932000Y-31242000D01*
X90678000Y-31242000D01*
X90658000Y-31242000D01*
X90658000Y-30988000D01*
X90678000Y-30988000D01*
X90678000Y-29788750D01*
X90932000Y-29788750D01*
X90932000Y-30988000D01*
X92131250Y-30988000D01*
X92290000Y-30829250D01*
X92293072Y-30265000D01*
X94396928Y-30265000D01*
X94400000Y-30829250D01*
X94558750Y-30988000D01*
X95758000Y-30988000D01*
X95758000Y-29788750D01*
X96012000Y-29788750D01*
X96012000Y-30988000D01*
X96032000Y-30988000D01*
X96032000Y-31242000D01*
X96012000Y-31242000D01*
X96012000Y-32441250D01*
X96170750Y-32600000D01*
X96735000Y-32603072D01*
X96859482Y-32590812D01*
X96979180Y-32554502D01*
X97089494Y-32495537D01*
X97186185Y-32416185D01*
X97265537Y-32319494D01*
X97324502Y-32209180D01*
X97345393Y-32140313D01*
X97369866Y-32170134D01*
X97595986Y-32355706D01*
X97853966Y-32493599D01*
X98133889Y-32578513D01*
X98352050Y-32600000D01*
X98497950Y-32600000D01*
X98716111Y-32578513D01*
X98996034Y-32493599D01*
X99254014Y-32355706D01*
X99480134Y-32170134D01*
X99665706Y-31944014D01*
X99803599Y-31686034D01*
X99888513Y-31406111D01*
X99917185Y-31115000D01*
X99888513Y-30823889D01*
X99803599Y-30543966D01*
X99665706Y-30285986D01*
X99480134Y-30059866D01*
X99254014Y-29874294D01*
X98996034Y-29736401D01*
X98716111Y-29651487D01*
X98497950Y-29630000D01*
X98352050Y-29630000D01*
X98133889Y-29651487D01*
X97853966Y-29736401D01*
X97595986Y-29874294D01*
X97369866Y-30059866D01*
X97345393Y-30089687D01*
X97324502Y-30020820D01*
X97265537Y-29910506D01*
X97186185Y-29813815D01*
X97089494Y-29734463D01*
X96979180Y-29675498D01*
X96859482Y-29639188D01*
X96735000Y-29626928D01*
X96170750Y-29630000D01*
X96012000Y-29788750D01*
X95758000Y-29788750D01*
X95599250Y-29630000D01*
X95035000Y-29626928D01*
X94910518Y-29639188D01*
X94790820Y-29675498D01*
X94680506Y-29734463D01*
X94583815Y-29813815D01*
X94504463Y-29910506D01*
X94445498Y-30020820D01*
X94409188Y-30140518D01*
X94396928Y-30265000D01*
X92293072Y-30265000D01*
X92280812Y-30140518D01*
X92244502Y-30020820D01*
X92185537Y-29910506D01*
X92106185Y-29813815D01*
X92009494Y-29734463D01*
X91899180Y-29675498D01*
X91779482Y-29639188D01*
X91655000Y-29626928D01*
X91090750Y-29630000D01*
X90932000Y-29788750D01*
X90678000Y-29788750D01*
X90519250Y-29630000D01*
X89955000Y-29626928D01*
X89830518Y-29639188D01*
X89710820Y-29675498D01*
X89600506Y-29734463D01*
X89503815Y-29813815D01*
X89424463Y-29910506D01*
X89365498Y-30020820D01*
X89344607Y-30089687D01*
X89320134Y-30059866D01*
X89094014Y-29874294D01*
X88836034Y-29736401D01*
X88556111Y-29651487D01*
X88337950Y-29630000D01*
X88192050Y-29630000D01*
X87973889Y-29651487D01*
X87693966Y-29736401D01*
X87435986Y-29874294D01*
X87209866Y-30059866D01*
X87024294Y-30285986D01*
X86886401Y-30543966D01*
X86801487Y-30823889D01*
X86772815Y-31115000D01*
X67633497Y-31115000D01*
X67633031Y-31112659D01*
X67468322Y-30715015D01*
X67229200Y-30357144D01*
X66924856Y-30052800D01*
X66566985Y-29813678D01*
X66169341Y-29648969D01*
X66003596Y-29616000D01*
X111288404Y-29616000D01*
X111122659Y-29648969D01*
X111122659Y-29648969D01*
G37*
X111122659Y-29648969D02*
X110725015Y-29813678D01*
X110367144Y-30052800D01*
X110062800Y-30357144D01*
X109823678Y-30715015D01*
X109658969Y-31112659D01*
X109575000Y-31534796D01*
X109575000Y-31965204D01*
X109658969Y-32387341D01*
X109823678Y-32784985D01*
X110062800Y-33142856D01*
X110367144Y-33447200D01*
X110725015Y-33686322D01*
X111122659Y-33851031D01*
X111544796Y-33935000D01*
X111975204Y-33935000D01*
X112397341Y-33851031D01*
X112794985Y-33686322D01*
X113152856Y-33447200D01*
X113457200Y-33142856D01*
X113640001Y-32869275D01*
X113640000Y-57300723D01*
X113457200Y-57027144D01*
X113152856Y-56722800D01*
X112794985Y-56483678D01*
X112397341Y-56318969D01*
X111975204Y-56235000D01*
X111544796Y-56235000D01*
X111122659Y-56318969D01*
X110725015Y-56483678D01*
X110367144Y-56722800D01*
X110062800Y-57027144D01*
X109823678Y-57385015D01*
X109658969Y-57782659D01*
X109575000Y-58204796D01*
X109575000Y-58635204D01*
X109658969Y-59057341D01*
X109823678Y-59454985D01*
X110062800Y-59812856D01*
X110367144Y-60117200D01*
X110640723Y-60300000D01*
X66651277Y-60300000D01*
X66924856Y-60117200D01*
X67229200Y-59812856D01*
X67468322Y-59454985D01*
X67633031Y-59057341D01*
X67717000Y-58635204D01*
X67717000Y-58204796D01*
X67633031Y-57782659D01*
X67468322Y-57385015D01*
X67229200Y-57027144D01*
X66924856Y-56722800D01*
X66566985Y-56483678D01*
X66169341Y-56318969D01*
X65747204Y-56235000D01*
X65316796Y-56235000D01*
X64894659Y-56318969D01*
X64497015Y-56483678D01*
X64139144Y-56722800D01*
X63834800Y-57027144D01*
X63652000Y-57300723D01*
X63652000Y-49784000D01*
X75215815Y-49784000D01*
X75244487Y-50075111D01*
X75329401Y-50355034D01*
X75467294Y-50613014D01*
X75652866Y-50839134D01*
X75878986Y-51024706D01*
X76136966Y-51162599D01*
X76416889Y-51247513D01*
X76635050Y-51269000D01*
X76780950Y-51269000D01*
X76999111Y-51247513D01*
X77279034Y-51162599D01*
X77537014Y-51024706D01*
X77763134Y-50839134D01*
X77948706Y-50613014D01*
X78086599Y-50355034D01*
X78171513Y-50075111D01*
X78200185Y-49784000D01*
X78171513Y-49492889D01*
X78086599Y-49212966D01*
X77948706Y-48954986D01*
X77763134Y-48728866D01*
X77537014Y-48543294D01*
X77472477Y-48508799D01*
X77589355Y-48439178D01*
X77805588Y-48244269D01*
X77979641Y-48010920D01*
X78104825Y-47748099D01*
X78149476Y-47600890D01*
X78028155Y-47371000D01*
X76835000Y-47371000D01*
X76835000Y-47391000D01*
X76581000Y-47391000D01*
X76581000Y-47371000D01*
X75387845Y-47371000D01*
X75266524Y-47600890D01*
X75311175Y-47748099D01*
X75436359Y-48010920D01*
X75610412Y-48244269D01*
X75826645Y-48439178D01*
X75943523Y-48508799D01*
X75878986Y-48543294D01*
X75652866Y-48728866D01*
X75467294Y-48954986D01*
X75329401Y-49212966D01*
X75244487Y-49492889D01*
X75215815Y-49784000D01*
X63652000Y-49784000D01*
X63652000Y-42164000D01*
X75215815Y-42164000D01*
X75244487Y-42455111D01*
X75329401Y-42735034D01*
X75467294Y-42993014D01*
X75652866Y-43219134D01*
X75878986Y-43404706D01*
X75933791Y-43434000D01*
X75878986Y-43463294D01*
X75652866Y-43648866D01*
X75467294Y-43874986D01*
X75329401Y-44132966D01*
X75244487Y-44412889D01*
X75215815Y-44704000D01*
X75244487Y-44995111D01*
X75329401Y-45275034D01*
X75467294Y-45533014D01*
X75652866Y-45759134D01*
X75878986Y-45944706D01*
X75943523Y-45979201D01*
X75826645Y-46048822D01*
X75610412Y-46243731D01*
X75436359Y-46477080D01*
X75311175Y-46739901D01*
X75266524Y-46887110D01*
X75387845Y-47117000D01*
X76581000Y-47117000D01*
X76581000Y-47097000D01*
X76835000Y-47097000D01*
X76835000Y-47117000D01*
X78028155Y-47117000D01*
X78149476Y-46887110D01*
X78104825Y-46739901D01*
X77979641Y-46477080D01*
X77858000Y-46313999D01*
X83666198Y-46313999D01*
X93370796Y-56018598D01*
X93345000Y-56016057D01*
X93063691Y-56043764D01*
X92793192Y-56125818D01*
X92543899Y-56259068D01*
X92325392Y-56438393D01*
X92146068Y-56656900D01*
X92075000Y-56789858D01*
X92003932Y-56656899D01*
X91824607Y-56438392D01*
X91606100Y-56259068D01*
X91356807Y-56125818D01*
X91086308Y-56043764D01*
X90805000Y-56016057D01*
X90523691Y-56043764D01*
X90253192Y-56125818D01*
X90003899Y-56259068D01*
X89842559Y-56391477D01*
X89795537Y-56303506D01*
X89716185Y-56206815D01*
X89619494Y-56127463D01*
X89509180Y-56068498D01*
X89389482Y-56032188D01*
X89265000Y-56019928D01*
X87265000Y-56019928D01*
X87140518Y-56032188D01*
X87020820Y-56068498D01*
X86910506Y-56127463D01*
X86813815Y-56206815D01*
X86734463Y-56303506D01*
X86675498Y-56413820D01*
X86639188Y-56533518D01*
X86626928Y-56658000D01*
X86626928Y-58658000D01*
X86639188Y-58782482D01*
X86675498Y-58902180D01*
X86734463Y-59012494D01*
X86813815Y-59109185D01*
X86910506Y-59188537D01*
X87020820Y-59247502D01*
X87140518Y-59283812D01*
X87265000Y-59296072D01*
X89265000Y-59296072D01*
X89389482Y-59283812D01*
X89509180Y-59247502D01*
X89619494Y-59188537D01*
X89716185Y-59109185D01*
X89795537Y-59012494D01*
X89842559Y-58924523D01*
X90003900Y-59056932D01*
X90253193Y-59190182D01*
X90523692Y-59272236D01*
X90805000Y-59299943D01*
X91086309Y-59272236D01*
X91356808Y-59190182D01*
X91606101Y-59056932D01*
X91824608Y-58877608D01*
X92003932Y-58659101D01*
X92075000Y-58526142D01*
X92146068Y-58659101D01*
X92325393Y-58877608D01*
X92543900Y-59056932D01*
X92793193Y-59190182D01*
X93063692Y-59272236D01*
X93345000Y-59299943D01*
X93626309Y-59272236D01*
X93896808Y-59190182D01*
X94146101Y-59056932D01*
X94364608Y-58877608D01*
X94543932Y-58659101D01*
X94615000Y-58526142D01*
X94686068Y-58659101D01*
X94865393Y-58877608D01*
X95083900Y-59056932D01*
X95333193Y-59190182D01*
X95603692Y-59272236D01*
X95885000Y-59299943D01*
X96166309Y-59272236D01*
X96436808Y-59190182D01*
X96686101Y-59056932D01*
X96904608Y-58877608D01*
X97083932Y-58659101D01*
X97155000Y-58526142D01*
X97226068Y-58659101D01*
X97405393Y-58877608D01*
X97623900Y-59056932D01*
X97873193Y-59190182D01*
X98143692Y-59272236D01*
X98425000Y-59299943D01*
X98706309Y-59272236D01*
X98976808Y-59190182D01*
X99226101Y-59056932D01*
X99444608Y-58877608D01*
X99623932Y-58659101D01*
X99695000Y-58526142D01*
X99766068Y-58659101D01*
X99945393Y-58877608D01*
X100163900Y-59056932D01*
X100413193Y-59190182D01*
X100683692Y-59272236D01*
X100965000Y-59299943D01*
X101246309Y-59272236D01*
X101516808Y-59190182D01*
X101766101Y-59056932D01*
X101984608Y-58877608D01*
X102163932Y-58659101D01*
X102235000Y-58526142D01*
X102306068Y-58659101D01*
X102485393Y-58877608D01*
X102703900Y-59056932D01*
X102953193Y-59190182D01*
X103223692Y-59272236D01*
X103505000Y-59299943D01*
X103786309Y-59272236D01*
X104056808Y-59190182D01*
X104306101Y-59056932D01*
X104524608Y-58877608D01*
X104703932Y-58659101D01*
X104775000Y-58526142D01*
X104846068Y-58659101D01*
X105025393Y-58877608D01*
X105243900Y-59056932D01*
X105493193Y-59190182D01*
X105763692Y-59272236D01*
X106045000Y-59299943D01*
X106326309Y-59272236D01*
X106596808Y-59190182D01*
X106846101Y-59056932D01*
X107064608Y-58877608D01*
X107243932Y-58659101D01*
X107377182Y-58409807D01*
X107459236Y-58139308D01*
X107480000Y-57928491D01*
X107480000Y-57387508D01*
X107459236Y-57176691D01*
X107377182Y-56906192D01*
X107243932Y-56656899D01*
X107064607Y-56438392D01*
X106846100Y-56259068D01*
X106596807Y-56125818D01*
X106326308Y-56043764D01*
X106045000Y-56016057D01*
X105763691Y-56043764D01*
X105493192Y-56125818D01*
X105243899Y-56259068D01*
X105025392Y-56438393D01*
X104846068Y-56656900D01*
X104775000Y-56789858D01*
X104703932Y-56656899D01*
X104524607Y-56438392D01*
X104306100Y-56259068D01*
X104056807Y-56125818D01*
X103786308Y-56043764D01*
X103505000Y-56016057D01*
X103223691Y-56043764D01*
X102953192Y-56125818D01*
X102703899Y-56259068D01*
X102485392Y-56438393D01*
X102306068Y-56656900D01*
X102235000Y-56789858D01*
X102163932Y-56656899D01*
X101984607Y-56438392D01*
X101766100Y-56259068D01*
X101516807Y-56125818D01*
X101246308Y-56043764D01*
X100965000Y-56016057D01*
X100683691Y-56043764D01*
X100639094Y-56057292D01*
X83694804Y-39113003D01*
X83671001Y-39083999D01*
X83555276Y-38989026D01*
X83423247Y-38918454D01*
X83279986Y-38874997D01*
X83168333Y-38864000D01*
X83168322Y-38864000D01*
X83131000Y-38860324D01*
X83093678Y-38864000D01*
X78196072Y-38864000D01*
X78196072Y-38774000D01*
X78183812Y-38649518D01*
X78147502Y-38529820D01*
X78088537Y-38419506D01*
X78009185Y-38322815D01*
X77912494Y-38243463D01*
X77802180Y-38184498D01*
X77682482Y-38148188D01*
X77558000Y-38135928D01*
X75858000Y-38135928D01*
X75733518Y-38148188D01*
X75613820Y-38184498D01*
X75503506Y-38243463D01*
X75406815Y-38322815D01*
X75327463Y-38419506D01*
X75268498Y-38529820D01*
X75232188Y-38649518D01*
X75219928Y-38774000D01*
X75219928Y-40474000D01*
X75232188Y-40598482D01*
X75268498Y-40718180D01*
X75327463Y-40828494D01*
X75406815Y-40925185D01*
X75503506Y-41004537D01*
X75613820Y-41063502D01*
X75682687Y-41084393D01*
X75652866Y-41108866D01*
X75467294Y-41334986D01*
X75329401Y-41592966D01*
X75244487Y-41872889D01*
X75215815Y-42164000D01*
X63652000Y-42164000D01*
X63652000Y-34527509D01*
X86830000Y-34527509D01*
X86830000Y-35068492D01*
X86850764Y-35279309D01*
X86932818Y-35549808D01*
X87066068Y-35799101D01*
X87245393Y-36017608D01*
X87463900Y-36196932D01*
X87713193Y-36330182D01*
X87983692Y-36412236D01*
X88265000Y-36439943D01*
X88546309Y-36412236D01*
X88816808Y-36330182D01*
X89066101Y-36196932D01*
X89284608Y-36017608D01*
X89463932Y-35799101D01*
X89535000Y-35666142D01*
X89606068Y-35799101D01*
X89785393Y-36017608D01*
X90003900Y-36196932D01*
X90253193Y-36330182D01*
X90523692Y-36412236D01*
X90805000Y-36439943D01*
X91086309Y-36412236D01*
X91356808Y-36330182D01*
X91606101Y-36196932D01*
X91824608Y-36017608D01*
X92003932Y-35799101D01*
X92075000Y-35666142D01*
X92146068Y-35799101D01*
X92325393Y-36017608D01*
X92543900Y-36196932D01*
X92793193Y-36330182D01*
X93063692Y-36412236D01*
X93345000Y-36439943D01*
X93626309Y-36412236D01*
X93896808Y-36330182D01*
X94146101Y-36196932D01*
X94364608Y-36017608D01*
X94543932Y-35799101D01*
X94615000Y-35666142D01*
X94686068Y-35799101D01*
X94865393Y-36017608D01*
X95083900Y-36196932D01*
X95333193Y-36330182D01*
X95603692Y-36412236D01*
X95885000Y-36439943D01*
X96166309Y-36412236D01*
X96436808Y-36330182D01*
X96686101Y-36196932D01*
X96904608Y-36017608D01*
X97083932Y-35799101D01*
X97155000Y-35666142D01*
X97226068Y-35799101D01*
X97405393Y-36017608D01*
X97623900Y-36196932D01*
X97873193Y-36330182D01*
X98143692Y-36412236D01*
X98425000Y-36439943D01*
X98706309Y-36412236D01*
X98976808Y-36330182D01*
X99226101Y-36196932D01*
X99444608Y-36017608D01*
X99623932Y-35799101D01*
X99695000Y-35666142D01*
X99766068Y-35799101D01*
X99945393Y-36017608D01*
X100163900Y-36196932D01*
X100413193Y-36330182D01*
X100683692Y-36412236D01*
X100965000Y-36439943D01*
X101246309Y-36412236D01*
X101516808Y-36330182D01*
X101766101Y-36196932D01*
X101984608Y-36017608D01*
X102163932Y-35799101D01*
X102233122Y-35669655D01*
X102240570Y-35687227D01*
X102399327Y-35920662D01*
X102600575Y-36118639D01*
X102836579Y-36273551D01*
X103098270Y-36379444D01*
X103155961Y-36389904D01*
X103378000Y-36267915D01*
X103378000Y-34925000D01*
X103358000Y-34925000D01*
X103358000Y-34671000D01*
X103378000Y-34671000D01*
X103378000Y-33328085D01*
X103632000Y-33328085D01*
X103632000Y-34671000D01*
X103652000Y-34671000D01*
X103652000Y-34925000D01*
X103632000Y-34925000D01*
X103632000Y-36267915D01*
X103854039Y-36389904D01*
X103911730Y-36379444D01*
X104173421Y-36273551D01*
X104409425Y-36118639D01*
X104610673Y-35920662D01*
X104769430Y-35687227D01*
X104776878Y-35669655D01*
X104846068Y-35799101D01*
X105025393Y-36017608D01*
X105243900Y-36196932D01*
X105493193Y-36330182D01*
X105763692Y-36412236D01*
X106045000Y-36439943D01*
X106326309Y-36412236D01*
X106596808Y-36330182D01*
X106846101Y-36196932D01*
X107064608Y-36017608D01*
X107243932Y-35799101D01*
X107377182Y-35549807D01*
X107459236Y-35279308D01*
X107480000Y-35068491D01*
X107480000Y-34527508D01*
X107459236Y-34316691D01*
X107377182Y-34046192D01*
X107243932Y-33796899D01*
X107064607Y-33578392D01*
X106846100Y-33399068D01*
X106596807Y-33265818D01*
X106326308Y-33183764D01*
X106045000Y-33156057D01*
X105763691Y-33183764D01*
X105493192Y-33265818D01*
X105243899Y-33399068D01*
X105025392Y-33578393D01*
X104846068Y-33796900D01*
X104776878Y-33926345D01*
X104769430Y-33908773D01*
X104610673Y-33675338D01*
X104409425Y-33477361D01*
X104173421Y-33322449D01*
X103911730Y-33216556D01*
X103854039Y-33206096D01*
X103632000Y-33328085D01*
X103378000Y-33328085D01*
X103155961Y-33206096D01*
X103098270Y-33216556D01*
X102836579Y-33322449D01*
X102600575Y-33477361D01*
X102399327Y-33675338D01*
X102240570Y-33908773D01*
X102233122Y-33926345D01*
X102163932Y-33796899D01*
X101984607Y-33578392D01*
X101766100Y-33399068D01*
X101516807Y-33265818D01*
X101246308Y-33183764D01*
X100965000Y-33156057D01*
X100683691Y-33183764D01*
X100413192Y-33265818D01*
X100163899Y-33399068D01*
X99945392Y-33578393D01*
X99766068Y-33796900D01*
X99695000Y-33929858D01*
X99623932Y-33796899D01*
X99444607Y-33578392D01*
X99226100Y-33399068D01*
X98976807Y-33265818D01*
X98706308Y-33183764D01*
X98425000Y-33156057D01*
X98143691Y-33183764D01*
X97873192Y-33265818D01*
X97623899Y-33399068D01*
X97405392Y-33578393D01*
X97226068Y-33796900D01*
X97155000Y-33929858D01*
X97083932Y-33796899D01*
X96904607Y-33578392D01*
X96686100Y-33399068D01*
X96436807Y-33265818D01*
X96166308Y-33183764D01*
X95885000Y-33156057D01*
X95603691Y-33183764D01*
X95333192Y-33265818D01*
X95083899Y-33399068D01*
X94865392Y-33578393D01*
X94686068Y-33796900D01*
X94615000Y-33929858D01*
X94543932Y-33796899D01*
X94364607Y-33578392D01*
X94146100Y-33399068D01*
X93896807Y-33265818D01*
X93626308Y-33183764D01*
X93345000Y-33156057D01*
X93063691Y-33183764D01*
X92793192Y-33265818D01*
X92543899Y-33399068D01*
X92325392Y-33578393D01*
X92146068Y-33796900D01*
X92075000Y-33929858D01*
X92003932Y-33796899D01*
X91824607Y-33578392D01*
X91606100Y-33399068D01*
X91356807Y-33265818D01*
X91086308Y-33183764D01*
X90805000Y-33156057D01*
X90523691Y-33183764D01*
X90253192Y-33265818D01*
X90003899Y-33399068D01*
X89785392Y-33578393D01*
X89606068Y-33796900D01*
X89535000Y-33929858D01*
X89463932Y-33796899D01*
X89284607Y-33578392D01*
X89066100Y-33399068D01*
X88816807Y-33265818D01*
X88546308Y-33183764D01*
X88265000Y-33156057D01*
X87983691Y-33183764D01*
X87713192Y-33265818D01*
X87463899Y-33399068D01*
X87245392Y-33578393D01*
X87066068Y-33796900D01*
X86932818Y-34046193D01*
X86850764Y-34316692D01*
X86830000Y-34527509D01*
X63652000Y-34527509D01*
X63652000Y-32869277D01*
X63834800Y-33142856D01*
X64139144Y-33447200D01*
X64497015Y-33686322D01*
X64894659Y-33851031D01*
X65316796Y-33935000D01*
X65747204Y-33935000D01*
X66169341Y-33851031D01*
X66566985Y-33686322D01*
X66924856Y-33447200D01*
X67229200Y-33142856D01*
X67468322Y-32784985D01*
X67633031Y-32387341D01*
X67717000Y-31965204D01*
X67717000Y-31534796D01*
X67633497Y-31115000D01*
X86772815Y-31115000D01*
X86801487Y-31406111D01*
X86886401Y-31686034D01*
X87024294Y-31944014D01*
X87209866Y-32170134D01*
X87435986Y-32355706D01*
X87693966Y-32493599D01*
X87973889Y-32578513D01*
X88192050Y-32600000D01*
X88337950Y-32600000D01*
X88556111Y-32578513D01*
X88836034Y-32493599D01*
X89094014Y-32355706D01*
X89320134Y-32170134D01*
X89344607Y-32140313D01*
X89365498Y-32209180D01*
X89424463Y-32319494D01*
X89503815Y-32416185D01*
X89600506Y-32495537D01*
X89710820Y-32554502D01*
X89830518Y-32590812D01*
X89955000Y-32603072D01*
X90519250Y-32600000D01*
X90678000Y-32441250D01*
X90678000Y-31242000D01*
X90932000Y-31242000D01*
X90932000Y-32441250D01*
X91090750Y-32600000D01*
X91655000Y-32603072D01*
X91779482Y-32590812D01*
X91899180Y-32554502D01*
X92009494Y-32495537D01*
X92106185Y-32416185D01*
X92185537Y-32319494D01*
X92244502Y-32209180D01*
X92280812Y-32089482D01*
X92293072Y-31965000D01*
X94396928Y-31965000D01*
X94409188Y-32089482D01*
X94445498Y-32209180D01*
X94504463Y-32319494D01*
X94583815Y-32416185D01*
X94680506Y-32495537D01*
X94790820Y-32554502D01*
X94910518Y-32590812D01*
X95035000Y-32603072D01*
X95599250Y-32600000D01*
X95758000Y-32441250D01*
X95758000Y-31242000D01*
X94558750Y-31242000D01*
X94400000Y-31400750D01*
X94396928Y-31965000D01*
X92293072Y-31965000D01*
X92290000Y-31400750D01*
X92131250Y-31242000D01*
X90932000Y-31242000D01*
X90678000Y-31242000D01*
X90658000Y-31242000D01*
X90658000Y-30988000D01*
X90678000Y-30988000D01*
X90678000Y-29788750D01*
X90932000Y-29788750D01*
X90932000Y-30988000D01*
X92131250Y-30988000D01*
X92290000Y-30829250D01*
X92293072Y-30265000D01*
X94396928Y-30265000D01*
X94400000Y-30829250D01*
X94558750Y-30988000D01*
X95758000Y-30988000D01*
X95758000Y-29788750D01*
X96012000Y-29788750D01*
X96012000Y-30988000D01*
X96032000Y-30988000D01*
X96032000Y-31242000D01*
X96012000Y-31242000D01*
X96012000Y-32441250D01*
X96170750Y-32600000D01*
X96735000Y-32603072D01*
X96859482Y-32590812D01*
X96979180Y-32554502D01*
X97089494Y-32495537D01*
X97186185Y-32416185D01*
X97265537Y-32319494D01*
X97324502Y-32209180D01*
X97345393Y-32140313D01*
X97369866Y-32170134D01*
X97595986Y-32355706D01*
X97853966Y-32493599D01*
X98133889Y-32578513D01*
X98352050Y-32600000D01*
X98497950Y-32600000D01*
X98716111Y-32578513D01*
X98996034Y-32493599D01*
X99254014Y-32355706D01*
X99480134Y-32170134D01*
X99665706Y-31944014D01*
X99803599Y-31686034D01*
X99888513Y-31406111D01*
X99917185Y-31115000D01*
X99888513Y-30823889D01*
X99803599Y-30543966D01*
X99665706Y-30285986D01*
X99480134Y-30059866D01*
X99254014Y-29874294D01*
X98996034Y-29736401D01*
X98716111Y-29651487D01*
X98497950Y-29630000D01*
X98352050Y-29630000D01*
X98133889Y-29651487D01*
X97853966Y-29736401D01*
X97595986Y-29874294D01*
X97369866Y-30059866D01*
X97345393Y-30089687D01*
X97324502Y-30020820D01*
X97265537Y-29910506D01*
X97186185Y-29813815D01*
X97089494Y-29734463D01*
X96979180Y-29675498D01*
X96859482Y-29639188D01*
X96735000Y-29626928D01*
X96170750Y-29630000D01*
X96012000Y-29788750D01*
X95758000Y-29788750D01*
X95599250Y-29630000D01*
X95035000Y-29626928D01*
X94910518Y-29639188D01*
X94790820Y-29675498D01*
X94680506Y-29734463D01*
X94583815Y-29813815D01*
X94504463Y-29910506D01*
X94445498Y-30020820D01*
X94409188Y-30140518D01*
X94396928Y-30265000D01*
X92293072Y-30265000D01*
X92280812Y-30140518D01*
X92244502Y-30020820D01*
X92185537Y-29910506D01*
X92106185Y-29813815D01*
X92009494Y-29734463D01*
X91899180Y-29675498D01*
X91779482Y-29639188D01*
X91655000Y-29626928D01*
X91090750Y-29630000D01*
X90932000Y-29788750D01*
X90678000Y-29788750D01*
X90519250Y-29630000D01*
X89955000Y-29626928D01*
X89830518Y-29639188D01*
X89710820Y-29675498D01*
X89600506Y-29734463D01*
X89503815Y-29813815D01*
X89424463Y-29910506D01*
X89365498Y-30020820D01*
X89344607Y-30089687D01*
X89320134Y-30059866D01*
X89094014Y-29874294D01*
X88836034Y-29736401D01*
X88556111Y-29651487D01*
X88337950Y-29630000D01*
X88192050Y-29630000D01*
X87973889Y-29651487D01*
X87693966Y-29736401D01*
X87435986Y-29874294D01*
X87209866Y-30059866D01*
X87024294Y-30285986D01*
X86886401Y-30543966D01*
X86801487Y-30823889D01*
X86772815Y-31115000D01*
X67633497Y-31115000D01*
X67633031Y-31112659D01*
X67468322Y-30715015D01*
X67229200Y-30357144D01*
X66924856Y-30052800D01*
X66566985Y-29813678D01*
X66169341Y-29648969D01*
X66003596Y-29616000D01*
X111288404Y-29616000D01*
X111122659Y-29648969D01*
M02*
