G04 #@! TF.GenerationSoftware,KiCad,Pcbnew,(5.1.2)-2*
G04 #@! TF.CreationDate,2019-08-08T14:41:15+02:00*
G04 #@! TF.ProjectId,esp8266_8x8MatrixLed,65737038-3236-4365-9f38-78384d617472,rev?*
G04 #@! TF.SameCoordinates,Original*
G04 #@! TF.FileFunction,Soldermask,Bot*
G04 #@! TF.FilePolarity,Negative*
%FSLAX46Y46*%
G04 Gerber Fmt 4.6, Leading zero omitted, Abs format (unit mm)*
G04 Created by KiCad (PCBNEW (5.1.2)-2) date 2019-08-08 14:41:15*
%MOMM*%
%LPD*%
G04 APERTURE LIST*
%ADD10C,0.100000*%
G04 APERTURE END LIST*
D10*
G36*
X93511822Y-56619313D02*
G01*
X93672241Y-56667976D01*
X93820077Y-56746995D01*
X93949659Y-56853341D01*
X94056004Y-56982922D01*
X94056005Y-56982924D01*
X94135024Y-57130758D01*
X94183687Y-57291177D01*
X94196000Y-57416196D01*
X94196000Y-57899803D01*
X94183687Y-58024822D01*
X94135024Y-58185242D01*
X94064114Y-58317906D01*
X94056004Y-58333078D01*
X93949659Y-58462659D01*
X93820078Y-58569004D01*
X93820076Y-58569005D01*
X93672242Y-58648024D01*
X93511823Y-58696687D01*
X93345000Y-58713117D01*
X93178178Y-58696687D01*
X93017759Y-58648024D01*
X92869925Y-58569005D01*
X92869923Y-58569004D01*
X92740342Y-58462659D01*
X92633996Y-58333078D01*
X92625886Y-58317906D01*
X92554976Y-58185242D01*
X92506313Y-58024823D01*
X92494000Y-57899804D01*
X92494000Y-57416197D01*
X92506313Y-57291178D01*
X92554976Y-57130759D01*
X92633995Y-56982923D01*
X92740341Y-56853341D01*
X92869922Y-56746996D01*
X92885094Y-56738886D01*
X93017758Y-56667976D01*
X93178177Y-56619313D01*
X93345000Y-56602883D01*
X93511822Y-56619313D01*
X93511822Y-56619313D01*
G37*
G36*
X90971822Y-56619313D02*
G01*
X91132241Y-56667976D01*
X91280077Y-56746995D01*
X91409659Y-56853341D01*
X91516004Y-56982922D01*
X91516005Y-56982924D01*
X91595024Y-57130758D01*
X91643687Y-57291177D01*
X91656000Y-57416196D01*
X91656000Y-57899803D01*
X91643687Y-58024822D01*
X91595024Y-58185242D01*
X91524114Y-58317906D01*
X91516004Y-58333078D01*
X91409659Y-58462659D01*
X91280078Y-58569004D01*
X91280076Y-58569005D01*
X91132242Y-58648024D01*
X90971823Y-58696687D01*
X90805000Y-58713117D01*
X90638178Y-58696687D01*
X90477759Y-58648024D01*
X90329925Y-58569005D01*
X90329923Y-58569004D01*
X90200342Y-58462659D01*
X90093996Y-58333078D01*
X90085886Y-58317906D01*
X90014976Y-58185242D01*
X89966313Y-58024823D01*
X89954000Y-57899804D01*
X89954000Y-57416197D01*
X89966313Y-57291178D01*
X90014976Y-57130759D01*
X90093995Y-56982923D01*
X90200341Y-56853341D01*
X90329922Y-56746996D01*
X90345094Y-56738886D01*
X90477758Y-56667976D01*
X90638177Y-56619313D01*
X90805000Y-56602883D01*
X90971822Y-56619313D01*
X90971822Y-56619313D01*
G37*
G36*
X96051822Y-56619313D02*
G01*
X96212241Y-56667976D01*
X96360077Y-56746995D01*
X96489659Y-56853341D01*
X96596004Y-56982922D01*
X96596005Y-56982924D01*
X96675024Y-57130758D01*
X96723687Y-57291177D01*
X96736000Y-57416196D01*
X96736000Y-57899803D01*
X96723687Y-58024822D01*
X96675024Y-58185242D01*
X96604114Y-58317906D01*
X96596004Y-58333078D01*
X96489659Y-58462659D01*
X96360078Y-58569004D01*
X96360076Y-58569005D01*
X96212242Y-58648024D01*
X96051823Y-58696687D01*
X95885000Y-58713117D01*
X95718178Y-58696687D01*
X95557759Y-58648024D01*
X95409925Y-58569005D01*
X95409923Y-58569004D01*
X95280342Y-58462659D01*
X95173996Y-58333078D01*
X95165886Y-58317906D01*
X95094976Y-58185242D01*
X95046313Y-58024823D01*
X95034000Y-57899804D01*
X95034000Y-57416197D01*
X95046313Y-57291178D01*
X95094976Y-57130759D01*
X95173995Y-56982923D01*
X95280341Y-56853341D01*
X95409922Y-56746996D01*
X95425094Y-56738886D01*
X95557758Y-56667976D01*
X95718177Y-56619313D01*
X95885000Y-56602883D01*
X96051822Y-56619313D01*
X96051822Y-56619313D01*
G37*
G36*
X98591822Y-56619313D02*
G01*
X98752241Y-56667976D01*
X98900077Y-56746995D01*
X99029659Y-56853341D01*
X99136004Y-56982922D01*
X99136005Y-56982924D01*
X99215024Y-57130758D01*
X99263687Y-57291177D01*
X99276000Y-57416196D01*
X99276000Y-57899803D01*
X99263687Y-58024822D01*
X99215024Y-58185242D01*
X99144114Y-58317906D01*
X99136004Y-58333078D01*
X99029659Y-58462659D01*
X98900078Y-58569004D01*
X98900076Y-58569005D01*
X98752242Y-58648024D01*
X98591823Y-58696687D01*
X98425000Y-58713117D01*
X98258178Y-58696687D01*
X98097759Y-58648024D01*
X97949925Y-58569005D01*
X97949923Y-58569004D01*
X97820342Y-58462659D01*
X97713996Y-58333078D01*
X97705886Y-58317906D01*
X97634976Y-58185242D01*
X97586313Y-58024823D01*
X97574000Y-57899804D01*
X97574000Y-57416197D01*
X97586313Y-57291178D01*
X97634976Y-57130759D01*
X97713995Y-56982923D01*
X97820341Y-56853341D01*
X97949922Y-56746996D01*
X97965094Y-56738886D01*
X98097758Y-56667976D01*
X98258177Y-56619313D01*
X98425000Y-56602883D01*
X98591822Y-56619313D01*
X98591822Y-56619313D01*
G37*
G36*
X101131822Y-56619313D02*
G01*
X101292241Y-56667976D01*
X101440077Y-56746995D01*
X101569659Y-56853341D01*
X101676004Y-56982922D01*
X101676005Y-56982924D01*
X101755024Y-57130758D01*
X101803687Y-57291177D01*
X101816000Y-57416196D01*
X101816000Y-57899803D01*
X101803687Y-58024822D01*
X101755024Y-58185242D01*
X101684114Y-58317906D01*
X101676004Y-58333078D01*
X101569659Y-58462659D01*
X101440078Y-58569004D01*
X101440076Y-58569005D01*
X101292242Y-58648024D01*
X101131823Y-58696687D01*
X100965000Y-58713117D01*
X100798178Y-58696687D01*
X100637759Y-58648024D01*
X100489925Y-58569005D01*
X100489923Y-58569004D01*
X100360342Y-58462659D01*
X100253996Y-58333078D01*
X100245886Y-58317906D01*
X100174976Y-58185242D01*
X100126313Y-58024823D01*
X100114000Y-57899804D01*
X100114000Y-57416197D01*
X100126313Y-57291178D01*
X100174976Y-57130759D01*
X100253995Y-56982923D01*
X100360341Y-56853341D01*
X100489922Y-56746996D01*
X100505094Y-56738886D01*
X100637758Y-56667976D01*
X100798177Y-56619313D01*
X100965000Y-56602883D01*
X101131822Y-56619313D01*
X101131822Y-56619313D01*
G37*
G36*
X103671822Y-56619313D02*
G01*
X103832241Y-56667976D01*
X103980077Y-56746995D01*
X104109659Y-56853341D01*
X104216004Y-56982922D01*
X104216005Y-56982924D01*
X104295024Y-57130758D01*
X104343687Y-57291177D01*
X104356000Y-57416196D01*
X104356000Y-57899803D01*
X104343687Y-58024822D01*
X104295024Y-58185242D01*
X104224114Y-58317906D01*
X104216004Y-58333078D01*
X104109659Y-58462659D01*
X103980078Y-58569004D01*
X103980076Y-58569005D01*
X103832242Y-58648024D01*
X103671823Y-58696687D01*
X103505000Y-58713117D01*
X103338178Y-58696687D01*
X103177759Y-58648024D01*
X103029925Y-58569005D01*
X103029923Y-58569004D01*
X102900342Y-58462659D01*
X102793996Y-58333078D01*
X102785886Y-58317906D01*
X102714976Y-58185242D01*
X102666313Y-58024823D01*
X102654000Y-57899804D01*
X102654000Y-57416197D01*
X102666313Y-57291178D01*
X102714976Y-57130759D01*
X102793995Y-56982923D01*
X102900341Y-56853341D01*
X103029922Y-56746996D01*
X103045094Y-56738886D01*
X103177758Y-56667976D01*
X103338177Y-56619313D01*
X103505000Y-56602883D01*
X103671822Y-56619313D01*
X103671822Y-56619313D01*
G37*
G36*
X106211822Y-56619313D02*
G01*
X106372241Y-56667976D01*
X106520077Y-56746995D01*
X106649659Y-56853341D01*
X106756004Y-56982922D01*
X106756005Y-56982924D01*
X106835024Y-57130758D01*
X106883687Y-57291177D01*
X106896000Y-57416196D01*
X106896000Y-57899803D01*
X106883687Y-58024822D01*
X106835024Y-58185242D01*
X106764114Y-58317906D01*
X106756004Y-58333078D01*
X106649659Y-58462659D01*
X106520078Y-58569004D01*
X106520076Y-58569005D01*
X106372242Y-58648024D01*
X106211823Y-58696687D01*
X106045000Y-58713117D01*
X105878178Y-58696687D01*
X105717759Y-58648024D01*
X105569925Y-58569005D01*
X105569923Y-58569004D01*
X105440342Y-58462659D01*
X105333996Y-58333078D01*
X105325886Y-58317906D01*
X105254976Y-58185242D01*
X105206313Y-58024823D01*
X105194000Y-57899804D01*
X105194000Y-57416197D01*
X105206313Y-57291178D01*
X105254976Y-57130759D01*
X105333995Y-56982923D01*
X105440341Y-56853341D01*
X105569922Y-56746996D01*
X105585094Y-56738886D01*
X105717758Y-56667976D01*
X105878177Y-56619313D01*
X106045000Y-56602883D01*
X106211822Y-56619313D01*
X106211822Y-56619313D01*
G37*
G36*
X89316000Y-58709000D02*
G01*
X87214000Y-58709000D01*
X87214000Y-56607000D01*
X89316000Y-56607000D01*
X89316000Y-58709000D01*
X89316000Y-58709000D01*
G37*
G36*
X76818443Y-48889519D02*
G01*
X76884627Y-48896037D01*
X77054466Y-48947557D01*
X77210991Y-49031222D01*
X77246729Y-49060552D01*
X77348186Y-49143814D01*
X77431448Y-49245271D01*
X77460778Y-49281009D01*
X77544443Y-49437534D01*
X77595963Y-49607373D01*
X77613359Y-49784000D01*
X77595963Y-49960627D01*
X77544443Y-50130466D01*
X77460778Y-50286991D01*
X77431448Y-50322729D01*
X77348186Y-50424186D01*
X77246729Y-50507448D01*
X77210991Y-50536778D01*
X77054466Y-50620443D01*
X76884627Y-50671963D01*
X76818443Y-50678481D01*
X76752260Y-50685000D01*
X76663740Y-50685000D01*
X76597557Y-50678481D01*
X76531373Y-50671963D01*
X76361534Y-50620443D01*
X76205009Y-50536778D01*
X76169271Y-50507448D01*
X76067814Y-50424186D01*
X75984552Y-50322729D01*
X75955222Y-50286991D01*
X75871557Y-50130466D01*
X75820037Y-49960627D01*
X75802641Y-49784000D01*
X75820037Y-49607373D01*
X75871557Y-49437534D01*
X75955222Y-49281009D01*
X75984552Y-49245271D01*
X76067814Y-49143814D01*
X76169271Y-49060552D01*
X76205009Y-49031222D01*
X76361534Y-48947557D01*
X76531373Y-48896037D01*
X76597557Y-48889519D01*
X76663740Y-48883000D01*
X76752260Y-48883000D01*
X76818443Y-48889519D01*
X76818443Y-48889519D01*
G37*
G36*
X76818443Y-46349519D02*
G01*
X76884627Y-46356037D01*
X77054466Y-46407557D01*
X77210991Y-46491222D01*
X77246729Y-46520552D01*
X77348186Y-46603814D01*
X77431448Y-46705271D01*
X77460778Y-46741009D01*
X77544443Y-46897534D01*
X77595963Y-47067373D01*
X77613359Y-47244000D01*
X77595963Y-47420627D01*
X77544443Y-47590466D01*
X77460778Y-47746991D01*
X77431448Y-47782729D01*
X77348186Y-47884186D01*
X77246729Y-47967448D01*
X77210991Y-47996778D01*
X77054466Y-48080443D01*
X76884627Y-48131963D01*
X76818443Y-48138481D01*
X76752260Y-48145000D01*
X76663740Y-48145000D01*
X76597558Y-48138482D01*
X76531373Y-48131963D01*
X76361534Y-48080443D01*
X76205009Y-47996778D01*
X76169271Y-47967448D01*
X76067814Y-47884186D01*
X75984552Y-47782729D01*
X75955222Y-47746991D01*
X75871557Y-47590466D01*
X75820037Y-47420627D01*
X75802641Y-47244000D01*
X75820037Y-47067373D01*
X75871557Y-46897534D01*
X75955222Y-46741009D01*
X75984552Y-46705271D01*
X76067814Y-46603814D01*
X76169271Y-46520552D01*
X76205009Y-46491222D01*
X76361534Y-46407557D01*
X76531373Y-46356037D01*
X76597557Y-46349519D01*
X76663740Y-46343000D01*
X76752260Y-46343000D01*
X76818443Y-46349519D01*
X76818443Y-46349519D01*
G37*
G36*
X76818442Y-43809518D02*
G01*
X76884627Y-43816037D01*
X77054466Y-43867557D01*
X77210991Y-43951222D01*
X77246729Y-43980552D01*
X77348186Y-44063814D01*
X77431448Y-44165271D01*
X77460778Y-44201009D01*
X77544443Y-44357534D01*
X77595963Y-44527373D01*
X77613359Y-44704000D01*
X77595963Y-44880627D01*
X77544443Y-45050466D01*
X77460778Y-45206991D01*
X77431448Y-45242729D01*
X77348186Y-45344186D01*
X77246729Y-45427448D01*
X77210991Y-45456778D01*
X77054466Y-45540443D01*
X76884627Y-45591963D01*
X76818443Y-45598481D01*
X76752260Y-45605000D01*
X76663740Y-45605000D01*
X76597557Y-45598481D01*
X76531373Y-45591963D01*
X76361534Y-45540443D01*
X76205009Y-45456778D01*
X76169271Y-45427448D01*
X76067814Y-45344186D01*
X75984552Y-45242729D01*
X75955222Y-45206991D01*
X75871557Y-45050466D01*
X75820037Y-44880627D01*
X75802641Y-44704000D01*
X75820037Y-44527373D01*
X75871557Y-44357534D01*
X75955222Y-44201009D01*
X75984552Y-44165271D01*
X76067814Y-44063814D01*
X76169271Y-43980552D01*
X76205009Y-43951222D01*
X76361534Y-43867557D01*
X76531373Y-43816037D01*
X76597558Y-43809518D01*
X76663740Y-43803000D01*
X76752260Y-43803000D01*
X76818442Y-43809518D01*
X76818442Y-43809518D01*
G37*
G36*
X76818443Y-41269519D02*
G01*
X76884627Y-41276037D01*
X77054466Y-41327557D01*
X77210991Y-41411222D01*
X77246729Y-41440552D01*
X77348186Y-41523814D01*
X77431448Y-41625271D01*
X77460778Y-41661009D01*
X77544443Y-41817534D01*
X77595963Y-41987373D01*
X77613359Y-42164000D01*
X77595963Y-42340627D01*
X77544443Y-42510466D01*
X77460778Y-42666991D01*
X77431448Y-42702729D01*
X77348186Y-42804186D01*
X77246729Y-42887448D01*
X77210991Y-42916778D01*
X77054466Y-43000443D01*
X76884627Y-43051963D01*
X76818442Y-43058482D01*
X76752260Y-43065000D01*
X76663740Y-43065000D01*
X76597558Y-43058482D01*
X76531373Y-43051963D01*
X76361534Y-43000443D01*
X76205009Y-42916778D01*
X76169271Y-42887448D01*
X76067814Y-42804186D01*
X75984552Y-42702729D01*
X75955222Y-42666991D01*
X75871557Y-42510466D01*
X75820037Y-42340627D01*
X75802641Y-42164000D01*
X75820037Y-41987373D01*
X75871557Y-41817534D01*
X75955222Y-41661009D01*
X75984552Y-41625271D01*
X76067814Y-41523814D01*
X76169271Y-41440552D01*
X76205009Y-41411222D01*
X76361534Y-41327557D01*
X76531373Y-41276037D01*
X76597557Y-41269519D01*
X76663740Y-41263000D01*
X76752260Y-41263000D01*
X76818443Y-41269519D01*
X76818443Y-41269519D01*
G37*
G36*
X77609000Y-40525000D02*
G01*
X75807000Y-40525000D01*
X75807000Y-38723000D01*
X77609000Y-38723000D01*
X77609000Y-40525000D01*
X77609000Y-40525000D01*
G37*
G36*
X88431822Y-33759313D02*
G01*
X88592241Y-33807976D01*
X88740077Y-33886995D01*
X88869659Y-33993341D01*
X88976004Y-34122922D01*
X88976005Y-34122924D01*
X89055024Y-34270758D01*
X89103687Y-34431177D01*
X89116000Y-34556196D01*
X89116000Y-35039803D01*
X89103687Y-35164822D01*
X89055024Y-35325242D01*
X88984114Y-35457906D01*
X88976004Y-35473078D01*
X88869659Y-35602659D01*
X88740078Y-35709004D01*
X88740076Y-35709005D01*
X88592242Y-35788024D01*
X88431823Y-35836687D01*
X88265000Y-35853117D01*
X88098178Y-35836687D01*
X87937759Y-35788024D01*
X87789925Y-35709005D01*
X87789923Y-35709004D01*
X87660342Y-35602659D01*
X87553996Y-35473078D01*
X87545886Y-35457906D01*
X87474976Y-35325242D01*
X87426313Y-35164823D01*
X87414000Y-35039804D01*
X87414000Y-34556197D01*
X87426313Y-34431178D01*
X87474976Y-34270759D01*
X87553995Y-34122923D01*
X87660341Y-33993341D01*
X87789922Y-33886996D01*
X87805094Y-33878886D01*
X87937758Y-33807976D01*
X88098177Y-33759313D01*
X88265000Y-33742883D01*
X88431822Y-33759313D01*
X88431822Y-33759313D01*
G37*
G36*
X106211822Y-33759313D02*
G01*
X106372241Y-33807976D01*
X106520077Y-33886995D01*
X106649659Y-33993341D01*
X106756004Y-34122922D01*
X106756005Y-34122924D01*
X106835024Y-34270758D01*
X106883687Y-34431177D01*
X106896000Y-34556196D01*
X106896000Y-35039803D01*
X106883687Y-35164822D01*
X106835024Y-35325242D01*
X106764114Y-35457906D01*
X106756004Y-35473078D01*
X106649659Y-35602659D01*
X106520078Y-35709004D01*
X106520076Y-35709005D01*
X106372242Y-35788024D01*
X106211823Y-35836687D01*
X106045000Y-35853117D01*
X105878178Y-35836687D01*
X105717759Y-35788024D01*
X105569925Y-35709005D01*
X105569923Y-35709004D01*
X105440342Y-35602659D01*
X105333996Y-35473078D01*
X105325886Y-35457906D01*
X105254976Y-35325242D01*
X105206313Y-35164823D01*
X105194000Y-35039804D01*
X105194000Y-34556197D01*
X105206313Y-34431178D01*
X105254976Y-34270759D01*
X105333995Y-34122923D01*
X105440341Y-33993341D01*
X105569922Y-33886996D01*
X105585094Y-33878886D01*
X105717758Y-33807976D01*
X105878177Y-33759313D01*
X106045000Y-33742883D01*
X106211822Y-33759313D01*
X106211822Y-33759313D01*
G37*
G36*
X103671822Y-33759313D02*
G01*
X103832241Y-33807976D01*
X103980077Y-33886995D01*
X104109659Y-33993341D01*
X104216004Y-34122922D01*
X104216005Y-34122924D01*
X104295024Y-34270758D01*
X104343687Y-34431177D01*
X104356000Y-34556196D01*
X104356000Y-35039803D01*
X104343687Y-35164822D01*
X104295024Y-35325242D01*
X104224114Y-35457906D01*
X104216004Y-35473078D01*
X104109659Y-35602659D01*
X103980078Y-35709004D01*
X103980076Y-35709005D01*
X103832242Y-35788024D01*
X103671823Y-35836687D01*
X103505000Y-35853117D01*
X103338178Y-35836687D01*
X103177759Y-35788024D01*
X103029925Y-35709005D01*
X103029923Y-35709004D01*
X102900342Y-35602659D01*
X102793996Y-35473078D01*
X102785886Y-35457906D01*
X102714976Y-35325242D01*
X102666313Y-35164823D01*
X102654000Y-35039804D01*
X102654000Y-34556197D01*
X102666313Y-34431178D01*
X102714976Y-34270759D01*
X102793995Y-34122923D01*
X102900341Y-33993341D01*
X103029922Y-33886996D01*
X103045094Y-33878886D01*
X103177758Y-33807976D01*
X103338177Y-33759313D01*
X103505000Y-33742883D01*
X103671822Y-33759313D01*
X103671822Y-33759313D01*
G37*
G36*
X101131822Y-33759313D02*
G01*
X101292241Y-33807976D01*
X101440077Y-33886995D01*
X101569659Y-33993341D01*
X101676004Y-34122922D01*
X101676005Y-34122924D01*
X101755024Y-34270758D01*
X101803687Y-34431177D01*
X101816000Y-34556196D01*
X101816000Y-35039803D01*
X101803687Y-35164822D01*
X101755024Y-35325242D01*
X101684114Y-35457906D01*
X101676004Y-35473078D01*
X101569659Y-35602659D01*
X101440078Y-35709004D01*
X101440076Y-35709005D01*
X101292242Y-35788024D01*
X101131823Y-35836687D01*
X100965000Y-35853117D01*
X100798178Y-35836687D01*
X100637759Y-35788024D01*
X100489925Y-35709005D01*
X100489923Y-35709004D01*
X100360342Y-35602659D01*
X100253996Y-35473078D01*
X100245886Y-35457906D01*
X100174976Y-35325242D01*
X100126313Y-35164823D01*
X100114000Y-35039804D01*
X100114000Y-34556197D01*
X100126313Y-34431178D01*
X100174976Y-34270759D01*
X100253995Y-34122923D01*
X100360341Y-33993341D01*
X100489922Y-33886996D01*
X100505094Y-33878886D01*
X100637758Y-33807976D01*
X100798177Y-33759313D01*
X100965000Y-33742883D01*
X101131822Y-33759313D01*
X101131822Y-33759313D01*
G37*
G36*
X96051822Y-33759313D02*
G01*
X96212241Y-33807976D01*
X96360077Y-33886995D01*
X96489659Y-33993341D01*
X96596004Y-34122922D01*
X96596005Y-34122924D01*
X96675024Y-34270758D01*
X96723687Y-34431177D01*
X96736000Y-34556196D01*
X96736000Y-35039803D01*
X96723687Y-35164822D01*
X96675024Y-35325242D01*
X96604114Y-35457906D01*
X96596004Y-35473078D01*
X96489659Y-35602659D01*
X96360078Y-35709004D01*
X96360076Y-35709005D01*
X96212242Y-35788024D01*
X96051823Y-35836687D01*
X95885000Y-35853117D01*
X95718178Y-35836687D01*
X95557759Y-35788024D01*
X95409925Y-35709005D01*
X95409923Y-35709004D01*
X95280342Y-35602659D01*
X95173996Y-35473078D01*
X95165886Y-35457906D01*
X95094976Y-35325242D01*
X95046313Y-35164823D01*
X95034000Y-35039804D01*
X95034000Y-34556197D01*
X95046313Y-34431178D01*
X95094976Y-34270759D01*
X95173995Y-34122923D01*
X95280341Y-33993341D01*
X95409922Y-33886996D01*
X95425094Y-33878886D01*
X95557758Y-33807976D01*
X95718177Y-33759313D01*
X95885000Y-33742883D01*
X96051822Y-33759313D01*
X96051822Y-33759313D01*
G37*
G36*
X90971822Y-33759313D02*
G01*
X91132241Y-33807976D01*
X91280077Y-33886995D01*
X91409659Y-33993341D01*
X91516004Y-34122922D01*
X91516005Y-34122924D01*
X91595024Y-34270758D01*
X91643687Y-34431177D01*
X91656000Y-34556196D01*
X91656000Y-35039803D01*
X91643687Y-35164822D01*
X91595024Y-35325242D01*
X91524114Y-35457906D01*
X91516004Y-35473078D01*
X91409659Y-35602659D01*
X91280078Y-35709004D01*
X91280076Y-35709005D01*
X91132242Y-35788024D01*
X90971823Y-35836687D01*
X90805000Y-35853117D01*
X90638178Y-35836687D01*
X90477759Y-35788024D01*
X90329925Y-35709005D01*
X90329923Y-35709004D01*
X90200342Y-35602659D01*
X90093996Y-35473078D01*
X90085886Y-35457906D01*
X90014976Y-35325242D01*
X89966313Y-35164823D01*
X89954000Y-35039804D01*
X89954000Y-34556197D01*
X89966313Y-34431178D01*
X90014976Y-34270759D01*
X90093995Y-34122923D01*
X90200341Y-33993341D01*
X90329922Y-33886996D01*
X90345094Y-33878886D01*
X90477758Y-33807976D01*
X90638177Y-33759313D01*
X90805000Y-33742883D01*
X90971822Y-33759313D01*
X90971822Y-33759313D01*
G37*
G36*
X93511822Y-33759313D02*
G01*
X93672241Y-33807976D01*
X93820077Y-33886995D01*
X93949659Y-33993341D01*
X94056004Y-34122922D01*
X94056005Y-34122924D01*
X94135024Y-34270758D01*
X94183687Y-34431177D01*
X94196000Y-34556196D01*
X94196000Y-35039803D01*
X94183687Y-35164822D01*
X94135024Y-35325242D01*
X94064114Y-35457906D01*
X94056004Y-35473078D01*
X93949659Y-35602659D01*
X93820078Y-35709004D01*
X93820076Y-35709005D01*
X93672242Y-35788024D01*
X93511823Y-35836687D01*
X93345000Y-35853117D01*
X93178178Y-35836687D01*
X93017759Y-35788024D01*
X92869925Y-35709005D01*
X92869923Y-35709004D01*
X92740342Y-35602659D01*
X92633996Y-35473078D01*
X92625886Y-35457906D01*
X92554976Y-35325242D01*
X92506313Y-35164823D01*
X92494000Y-35039804D01*
X92494000Y-34556197D01*
X92506313Y-34431178D01*
X92554976Y-34270759D01*
X92633995Y-34122923D01*
X92740341Y-33993341D01*
X92869922Y-33886996D01*
X92885094Y-33878886D01*
X93017758Y-33807976D01*
X93178177Y-33759313D01*
X93345000Y-33742883D01*
X93511822Y-33759313D01*
X93511822Y-33759313D01*
G37*
G36*
X98591822Y-33759313D02*
G01*
X98752241Y-33807976D01*
X98900077Y-33886995D01*
X99029659Y-33993341D01*
X99136004Y-34122922D01*
X99136005Y-34122924D01*
X99215024Y-34270758D01*
X99263687Y-34431177D01*
X99276000Y-34556196D01*
X99276000Y-35039803D01*
X99263687Y-35164822D01*
X99215024Y-35325242D01*
X99144114Y-35457906D01*
X99136004Y-35473078D01*
X99029659Y-35602659D01*
X98900078Y-35709004D01*
X98900076Y-35709005D01*
X98752242Y-35788024D01*
X98591823Y-35836687D01*
X98425000Y-35853117D01*
X98258178Y-35836687D01*
X98097759Y-35788024D01*
X97949925Y-35709005D01*
X97949923Y-35709004D01*
X97820342Y-35602659D01*
X97713996Y-35473078D01*
X97705886Y-35457906D01*
X97634976Y-35325242D01*
X97586313Y-35164823D01*
X97574000Y-35039804D01*
X97574000Y-34556197D01*
X97586313Y-34431178D01*
X97634976Y-34270759D01*
X97713995Y-34122923D01*
X97820341Y-33993341D01*
X97949922Y-33886996D01*
X97965094Y-33878886D01*
X98097758Y-33807976D01*
X98258177Y-33759313D01*
X98425000Y-33742883D01*
X98591822Y-33759313D01*
X98591822Y-33759313D01*
G37*
G36*
X98535442Y-30220518D02*
G01*
X98601627Y-30227037D01*
X98771466Y-30278557D01*
X98927991Y-30362222D01*
X98963729Y-30391552D01*
X99065186Y-30474814D01*
X99148448Y-30576271D01*
X99177778Y-30612009D01*
X99261443Y-30768534D01*
X99312963Y-30938373D01*
X99330359Y-31115000D01*
X99312963Y-31291627D01*
X99261443Y-31461466D01*
X99177778Y-31617991D01*
X99148448Y-31653729D01*
X99065186Y-31755186D01*
X98963729Y-31838448D01*
X98927991Y-31867778D01*
X98771466Y-31951443D01*
X98601627Y-32002963D01*
X98535443Y-32009481D01*
X98469260Y-32016000D01*
X98380740Y-32016000D01*
X98314557Y-32009481D01*
X98248373Y-32002963D01*
X98078534Y-31951443D01*
X97922009Y-31867778D01*
X97886271Y-31838448D01*
X97784814Y-31755186D01*
X97701552Y-31653729D01*
X97672222Y-31617991D01*
X97588557Y-31461466D01*
X97537037Y-31291627D01*
X97519641Y-31115000D01*
X97537037Y-30938373D01*
X97588557Y-30768534D01*
X97672222Y-30612009D01*
X97701552Y-30576271D01*
X97784814Y-30474814D01*
X97886271Y-30391552D01*
X97922009Y-30362222D01*
X98078534Y-30278557D01*
X98248373Y-30227037D01*
X98314558Y-30220518D01*
X98380740Y-30214000D01*
X98469260Y-30214000D01*
X98535442Y-30220518D01*
X98535442Y-30220518D01*
G37*
G36*
X96786000Y-32016000D02*
G01*
X94984000Y-32016000D01*
X94984000Y-30214000D01*
X96786000Y-30214000D01*
X96786000Y-32016000D01*
X96786000Y-32016000D01*
G37*
G36*
X91706000Y-32016000D02*
G01*
X89904000Y-32016000D01*
X89904000Y-30214000D01*
X91706000Y-30214000D01*
X91706000Y-32016000D01*
X91706000Y-32016000D01*
G37*
G36*
X88375442Y-30220518D02*
G01*
X88441627Y-30227037D01*
X88611466Y-30278557D01*
X88767991Y-30362222D01*
X88803729Y-30391552D01*
X88905186Y-30474814D01*
X88988448Y-30576271D01*
X89017778Y-30612009D01*
X89101443Y-30768534D01*
X89152963Y-30938373D01*
X89170359Y-31115000D01*
X89152963Y-31291627D01*
X89101443Y-31461466D01*
X89017778Y-31617991D01*
X88988448Y-31653729D01*
X88905186Y-31755186D01*
X88803729Y-31838448D01*
X88767991Y-31867778D01*
X88611466Y-31951443D01*
X88441627Y-32002963D01*
X88375443Y-32009481D01*
X88309260Y-32016000D01*
X88220740Y-32016000D01*
X88154557Y-32009481D01*
X88088373Y-32002963D01*
X87918534Y-31951443D01*
X87762009Y-31867778D01*
X87726271Y-31838448D01*
X87624814Y-31755186D01*
X87541552Y-31653729D01*
X87512222Y-31617991D01*
X87428557Y-31461466D01*
X87377037Y-31291627D01*
X87359641Y-31115000D01*
X87377037Y-30938373D01*
X87428557Y-30768534D01*
X87512222Y-30612009D01*
X87541552Y-30576271D01*
X87624814Y-30474814D01*
X87726271Y-30391552D01*
X87762009Y-30362222D01*
X87918534Y-30278557D01*
X88088373Y-30227037D01*
X88154558Y-30220518D01*
X88220740Y-30214000D01*
X88309260Y-30214000D01*
X88375442Y-30220518D01*
X88375442Y-30220518D01*
G37*
M02*
