M48
; DRILL file {KiCad (5.1.2)-2} date 08/08/2019 14:41:17
; FORMAT={-:-/ absolute / inch / decimal}
; #@! TF.CreationDate,2019-08-08T14:41:17+02:00
; #@! TF.GenerationSoftware,Kicad,Pcbnew,(5.1.2)-2
FMAT,2
INCH
T1C0.0394
T2C0.1181
%
G90
G05
T1
X3.475Y-1.37
X3.475Y-2.27
X3.575Y-1.37
X3.575Y-2.27
X3.675Y-1.37
X3.675Y-2.27
X3.775Y-1.37
X3.775Y-2.27
X3.875Y-1.37
X3.875Y-2.27
X3.975Y-1.37
X3.975Y-2.27
X4.075Y-1.37
X4.075Y-2.27
X4.175Y-1.37
X4.175Y-2.27
X3.475Y-1.225
X3.575Y-1.225
X3.02Y-1.56
X3.02Y-1.66
X3.02Y-1.76
X3.02Y-1.86
X3.02Y-1.96
X3.775Y-1.225
X3.875Y-1.225
T2
X2.58Y-1.25
X2.58Y-2.3
X4.4Y-1.25
X4.4Y-2.3
T0
M30
